<?xml version="1.0" encoding="utf-8"?>
<!-- Generator: Adobe Illustrator 23.0.1, SVG Export Plug-In . SVG Version: 6.00 Build 0)  -->
<svg version="1.1" id="Слой_1" xmlns="http://www.w3.org/2000/svg" xmlns:xlink="http://www.w3.org/1999/xlink" x="0px" y="0px"
	 viewBox="0 0 400 300" style="enable-background:new 0 0 400 300;" xml:space="preserve">
<style type="text/css">
	.st0{fill:#FFFFFF;}
	.st1{fill:#00D0D0;}
</style>
<g>
	<g>
		<g>
			<path class="st0" d="M373.6,231.1c-7-10.3-13.4-19.7-20.1-29.4c0.2-2.8,0.6-6.2,0.6-9.6c0-43.7,0-87.5,0-131.2
				c0-10.9-2.4-14.2-11.4-15.7C276.9,34.4,195.4,21,91.7,4.1C73.8,1.1,68.3,4.8,68.2,19.9c0,65.1,0,130.2,0.1,195.3
				c0,4.6,0.9,9.2,1.3,12.7c-15,17.2-30.1,34.5-47.4,54.4L373.6,231.1z M272.3,237.7c-0.2,0.2-0.4,0.5-0.6,0.7
				c-0.1,0.1-0.1,0.1-0.2,0.2c-0.1,0.1-0.2,0.2-0.3,0.3c0,0,0,0,0,0c-0.1,0.1-0.2,0.2-0.3,0.3c0,0,0,0,0,0c-0.1,0.1-0.2,0.2-0.3,0.3
				c0,0,0,0,0,0c-0.1,0.1-0.2,0.2-0.3,0.2c0,0,0,0,0,0c-0.2,0.1-0.3,0.2-0.5,0.3c-0.2,0.1-0.4,0.2-0.7,0.2c-10,1.7-20.4,3-31.1,4.4
				c-10.5,1.5-21.3,3.1-32.4,4.3c-0.4,0-0.9,0-1.3-0.1c-0.5-0.1-1-0.3-1.5-0.5l0,0c-0.1-0.1-0.3-0.1-0.4-0.2
				c-0.2-0.1-0.4-0.2-0.6-0.3c-0.3-0.2-0.6-0.3-0.8-0.5c-0.4-0.2-0.9-0.5-1.3-0.7c-0.3-0.1-0.6-0.3-0.9-0.4c0.3-0.3,0.6-0.5,0.9-0.8
				c0,0,0,0,0,0c0.4-0.4,0.9-0.9,1.3-1.4c0.3-0.3,0.6-0.6,0.8-0.9c0,0,0,0,0,0c1-1.1,2-2,3-2.5c0.3-0.1,0.6-0.2,0.9-0.3
				c22.4-3.2,43.5-5.8,63.4-8c0.2,0,0.4,0,0.7,0c1.5,0.3,3.1,2.3,4.6,3.4C273.6,236.3,273,237,272.3,237.7
				C272.4,237.7,272.4,237.7,272.3,237.7z M91.6,246.9c4.8-10.9,11.6-16.2,23.4-17.9c0.4-0.1,0.8-0.1,1.1-0.1
				c0.4-0.1,0.9-0.1,1.4-0.2c84.6-7.9,153.8-14.7,211.3-20.9c0.3,0,0.6-0.1,0.9-0.1c0.2,0,0.4,0,0.6,0c6.4-0.3,9.9,2.7,12.6,9.8
				L91.6,246.9z M84,23.9l262.6,36.7v129.9L84,209.7V23.9z"/>
			<path class="st0" d="M199.6,246.5c-0.3-0.1-0.6-0.3-0.9-0.4C199.1,246.2,199.4,246.3,199.6,246.5z"/>
			<path class="st0" d="M199.6,245.2c-0.3,0.3-0.6,0.6-0.9,0.8C199.1,245.8,199.4,245.5,199.6,245.2z"/>
			<path class="st0" d="M200.9,243.9c-0.4,0.5-0.8,0.9-1.3,1.4C200.1,244.8,200.5,244.3,200.9,243.9z"/>
			<path class="st0" d="M204.8,240.5c-1,0.5-2,1.4-3,2.5C202.8,241.9,203.8,240.9,204.8,240.5z"/>
			<path class="st0" d="M202.8,248.2c0.5,0.2,1,0.4,1.5,0.5C203.8,248.6,203.3,248.5,202.8,248.2z"/>
			<path class="st0" d="M343,217.6L343,217.6c-2.8-7.4-6.5-10.3-13.3-9.8C336.5,207.3,340.2,210.2,343,217.6z"/>
		</g>
		<path class="st0" d="M26,286.5c154.1-23.3,263.3-39.7,346.1-52.2c-2.2,5.5-5.4,7.4-9.6,8c-27.9,4.4-58.6,9.5-92.5,14.9
			c-60,9.7-131.5,21.2-218,35.4C41.9,294.2,33.7,293.7,26,286.5z"/>
	</g>
	<g>
		<g>
			<path class="st1" d="M176.4,130.5l8.9,0.2v11.7l-8.9,0v16.5l-16.4,0.3v-16.8l-35.7-0.2l-0.9-9.8l36.4-50.9l16.6,1.4V130.5z
				 M139.7,129.8l20.2,0.4V102l-0.3-0.1l-1.7,3.4L139.7,129.8z"/>
		</g>
		<g>
			<path class="st1" d="M304.6,133.1l6.2,0.1v9.7l-6.2,0v13.8l-11.4,0.2v-14l-24.4-0.1l-0.6-8.1L293,92.3l11.5,0.9V133.1z
				 M279.3,132.6l13.9,0.3v-23.4l-0.2-0.1l-1.2,2.8L279.3,132.6z"/>
		</g>
		<g>
			<path class="st1" d="M228.5,96.2c13.8,1,24.7,13,24.7,26.8s-10.9,25.1-24.7,25.1c-14.4,0-26.5-12-26.5-26.8
				S214.1,95.2,228.5,96.2 M228.5,86.6c-19.8-1.6-36.7,13.7-36.7,34.3c0,20.6,16.9,37,36.7,36.7c18.8-0.3,33.3-15.7,33.3-34.4
				S247.3,88.2,228.5,86.6L228.5,86.6z"/>
		</g>
		<g>
			<path class="st1" d="M241.7,129c-0.1,0.4-0.2,0.8-0.3,1.2c-0.1,0.4-0.2,0.7-0.3,1c-0.1,0.3-0.2,0.5-0.2,0.5
				c-0.6,1.5-1.4,2.6-2.3,3.5c-0.9,0.9-1.9,1.6-3,2c-1.1,0.5-2.2,0.8-3.3,0.9c-1.1,0.1-2.2,0.2-3.2,0.2c-0.1,0-0.3,0-0.5,0
				c-0.2,0-0.7,0-1.5-0.1c-0.2,0-0.5-0.1-0.9-0.1c-0.3,0-0.7-0.1-1-0.1c-0.2,0-0.5-0.1-0.8-0.1c-0.3,0-0.6-0.1-0.8-0.1
				c-0.2-0.1-0.4-0.1-0.7-0.2c-0.2-0.1-0.5-0.1-0.7-0.2c-0.4-0.1-0.9-0.3-1.4-0.5c-0.5-0.3-1-0.6-1.6-0.9c-0.2-0.1-0.5-0.4-0.9-0.7
				c-0.4-0.4-0.7-0.8-1.1-1.2c-0.4-0.4-0.7-0.8-0.9-1.1c-0.3-0.4-0.4-0.6-0.4-0.8v-7.7c0-0.2,0-0.5-0.1-0.8c0-0.3-0.1-0.6-0.1-0.9
				c0-0.3-0.1-0.5-0.1-0.8c0-0.2-0.1-0.3-0.1-0.4c-0.1,0-0.3,0-0.5-0.1l-0.5,0c0.1,0,0.3-0.1,0.5-0.1c0.2,0,0.3,0,0.5-0.1
				c-0.2-0.1-0.3-0.1-0.5-0.1c-0.2,0-0.3,0-0.5,0.1v-4.3l1.8,0.1c0.1,0,0.2,0.1,0.3,0.2c0.1,0.1,0.2,0.2,0.3,0.2l5.4,0.2v-0.8
				l-7.7-0.3v-2.6l7.6,0.3l0.1-0.1c0,0,0-0.1,0-0.2c0-0.1,0-0.2,0-0.2l-0.1-0.1l-7.6-0.3v-5.5l9,0.5v4.5c0,0.1,0,0.1,0,0.1
				c0,0,0.1-0.1,0.1-0.1v5l1.8,0.1v0.5l-1.7-0.1v2c-0.1,0-0.1,0-0.2,0.1v2.4l6.8,0.2v0.5l-6.8-0.2v3c0,0.8,0.1,1.4,0.4,2
				c0.3,0.6,0.6,1.1,1.1,1.5c0.5,0.4,1,0.7,1.6,1c0.6,0.2,1.2,0.3,1.9,0.4c0.4,0,0.9,0,1.3-0.1c0.5-0.1,0.9-0.2,1.3-0.5
				c0.4-0.2,0.8-0.5,1.1-0.9c0.3-0.4,0.6-0.9,0.8-1.4c0-0.1,0.1-0.3,0.2-0.5c0.1-0.2,0.1-0.4,0.1-0.5v-8.6l5.8,0.2
				c0.2-0.2,0.4-0.3,0.6-0.5c0.2-0.2,0.5-0.3,0.7-0.5l1.4,0.1v9.6C241.8,128.3,241.8,128.6,241.7,129z M222.4,118.2l-0.1,0v0.4
				l0.1,0V118.2z M225.6,129.9v-0.4l0.9,0v0.4L225.6,129.9z M226.3,119c0,0.1-0.1,0.2-0.1,0.3c0,0.1,0,0.2,0,0.4c0,0.1,0,0.2,0,0.3
				c0,0.4,0,0.7-0.1,1.1c0,0.4-0.1,0.8-0.1,1.3c0-0.6,0-1.2-0.1-1.7c0,0,0-0.2,0-0.5c0-0.3,0-0.6,0-0.9c0-0.3,0-0.6,0-0.9
				c0-0.3,0-0.4,0.1-0.4c0,0,0,0.1,0,0.3c0,0.1,0.1,0.2,0.3,0.3v0.4C226.5,118.9,226.4,118.9,226.3,119z M226.7,129.9v-0.4l1.2,0
				v0.4L226.7,129.9z M229.2,119v-0.4l0.9,0v0.4L229.2,119z M233.3,114.6v-5.3l8.5,0.4v5.3L233.3,114.6z M241.6,117.9
				c-0.1,0.1-0.2,0.1-0.2,0.1l-8.1-0.3v-2.6l8.5,0.4v2.3C241.8,117.8,241.7,117.9,241.6,117.9z"/>
		</g>
	</g>
</g>
</svg>
