<?xml version="1.0" encoding="utf-8"?>
<!-- Generator: Adobe Illustrator 23.0.1, SVG Export Plug-In . SVG Version: 6.00 Build 0)  -->
<svg version="1.1" id="Слой_1" xmlns="http://www.w3.org/2000/svg" xmlns:xlink="http://www.w3.org/1999/xlink" x="0px" y="0px"
	 viewBox="0 0 35 35" style="enable-background:new 0 0 35 35;" xml:space="preserve">
<style type="text/css">
	.st0{fill:#01FFFF;}
</style>
<path class="st0" d="M27.2,34.8c-6.4,0-12.8,0-19.2,0c-0.2,0-0.5-0.1-0.7-0.1c-3.3-0.2-5.9-2.3-6.8-5.5c-0.2-0.6-0.2-1.3-0.4-1.9
	c0-6.5,0-13,0-19.6c0-0.2,0.1-0.4,0.1-0.7c0.3-3.4,2.7-6,6-6.6c0.5-0.1,1.1-0.2,1.6-0.3c6.4,0,12.9,0,19.3,0
	c0.3,0.1,0.5,0.1,0.8,0.1c3.2,0.3,5.8,2.5,6.6,5.6c0.2,0.6,0.2,1.3,0.4,1.9c0,6.4,0,12.8,0,19.2c0,0.2-0.1,0.4-0.1,0.7
	c-0.3,3.5-2.6,6.1-6.1,6.8C28.2,34.6,27.7,34.7,27.2,34.8z M25.6,14.9c0-0.7,0-1.4,0-2.1c0-2.1,0-4.2,0-6.3c0-0.9-0.3-1.2-1.2-1
	c-0.6,0.1-1.3,0.2-1.9,0.4c-3,0.6-6,1.2-9.1,1.8c-0.6,0.1-1,0.4-1,1.1c0,0.3,0,0.6,0,0.9c0,4,0,8,0,11.9c0,1.1-0.1,1.2-1.2,1.5
	c-0.9,0.2-1.9,0.4-2.7,0.8c-1.9,0.9-2,3.5-0.3,4.6c1.9,1.3,5.2-0.1,5.5-2.4c0.1-0.5,0.1-1,0.1-1.5c0-3.5,0-7,0-10.5
	c0-1,0.1-1.1,1.1-1.3c2.7-0.5,5.5-1.1,8.2-1.6c1-0.2,1.1-0.1,1.1,0.9c0,2.4,0,4.7,0,7.1c0,1-0.2,1.2-1.2,1.5
	c-0.9,0.2-1.8,0.4-2.6,0.7c-1.2,0.5-1.8,1.7-1.6,2.9c0.2,1.1,1.1,2.1,2.3,2.2c2.3,0.2,4.6-0.7,4.5-3.8
	C25.6,20.2,25.6,17.6,25.6,14.9z"/>
</svg>
