<svg xmlns="http://www.w3.org/2000/svg" viewBox="0 0 35 35"><path fill="#01ffff" d="M27.2 34.8H8c-.2 0-.5-.1-.7-.1-3.3-.2-5.9-2.3-6.8-5.5-.2-.6-.2-1.3-.4-1.9V7.7c0-.2.1-.4.1-.7.3-3.4 2.7-6 6-6.6C6.7.3 7.3.2 7.8.1h19.3c.3.1.5.1.8.1 3.2.3 5.8 2.5 6.6 5.6.2.6.2 1.3.4 1.9v19.2c0 .2-.1.4-.1.7-.3 3.5-2.6 6.1-6.1 6.8-.5.2-1 .3-1.5.4zm-1.6-19.9v-2.1-6.3c0-.9-.3-1.2-1.2-1-.6.1-1.3.2-1.9.4-3 .6-6 1.2-9.1 1.8-.6.1-1 .4-1 1.1v12.8c0 1.1-.1 1.2-1.2 1.5-.9.2-1.9.4-2.7.8-1.9.9-2 3.5-.3 4.6 1.9 1.3 5.2-.1 5.5-2.4.1-.5.1-1 .1-1.5V14.1c0-1 .1-1.1 1.1-1.3 2.7-.5 5.5-1.1 8.2-1.6 1-.2 1.1-.1 1.1.9v7.1c0 1-.2 1.2-1.2 1.5-.9.2-1.8.4-2.6.7-1.2.5-1.8 1.7-1.6 2.9.2 1.1 1.1 2.1 2.3 2.2 2.3.2 4.6-.7 4.5-3.8v-7.8z"/></svg>