<?xml version="1.0" encoding="utf-8"?>
<!-- Generator: Adobe Illustrator 23.0.1, SVG Export Plug-In . SVG Version: 6.00 Build 0)  -->
<svg version="1.1" id="Слой_1" xmlns="http://www.w3.org/2000/svg" xmlns:xlink="http://www.w3.org/1999/xlink" x="0px" y="0px"
	 viewBox="0 0 150 150" style="enable-background:new 0 0 150 150;" xml:space="preserve">
<style type="text/css">
	.st0{fill:#00FFF9;}
</style>
<g>
	<path class="st0" d="M5.4,75.4c0-18.6,7.2-36.1,20.4-49.3C39,12.9,56.5,5.7,75.1,5.7c9.6,0,18.9,1.9,27.4,5.6v4.2h6.5v-1
		c5.6,3.1,10.7,7,15.4,11.6c1.1,1.1,2.2,2.3,3.3,3.5l1.4-0.5c-5.6-6.5-12.4-12-20-16.2v-4h-6.5v0.8c-8.4-3.5-17.7-5.5-27.4-5.5
		C35.8,4.3,4,36.1,4,75.4c0,30.9,19.8,57.3,47.4,67l0.1-1.4c-9.5-3.4-18.3-8.9-25.7-16.3C12.6,111.5,5.4,94,5.4,75.4z"/>
	<path class="st0" d="M146.2,75.4c0-8.2-1.4-16.2-4-23.5l-1.3,0.5c2.6,7.3,3.9,15.1,3.9,23c0,11.9-3,23.3-8.5,33.5h-4.5v6.5h0.4
		c-2.3,3.3-4.9,6.4-7.8,9.3c-12.6,12.6-29.3,19.8-47.1,20.4l-0.1,1.4c23.6-0.7,44.3-12.9,56.7-31.1h4.4v-6.5h-0.5
		C143.1,98.9,146.2,87.5,146.2,75.4z"/>
	<path class="st0" d="M135,75.4c0-33.1-26.8-59.9-59.9-59.9c-24.9,0-46.2,15.1-55.3,36.7h1.5c2.9-6.7,7.1-12.9,12.4-18.2
		c11.1-11.1,25.8-17.1,41.4-17.1s30.3,6.1,41.4,17.1c11.1,11.1,17.1,25.8,17.1,41.4c0,15.6-6.1,30.3-17.1,41.4
		c-11.1,11.1-25.8,17.1-41.4,17.1s-30.3-6.1-41.4-17.1c-1.9-1.9-3.7-4-5.3-6.1h0.2v-6.5h-4.5c-4.5-7.9-7.1-16.8-7.5-26h-1.4
		c0.4,9.4,3,18.2,7.3,26h-0.4v6.5h4.5c10.9,14.9,28.5,24.6,48.4,24.6C108.2,135.3,135,108.5,135,75.4z"/>
</g>
</svg>
