<?xml version="1.0" encoding="utf-8"?>
<!-- Generator: Adobe Illustrator 23.0.1, SVG Export Plug-In . SVG Version: 6.00 Build 0)  -->
<svg version="1.1" id="Слой_1" xmlns="http://www.w3.org/2000/svg" xmlns:xlink="http://www.w3.org/1999/xlink" x="0px" y="0px"
	 viewBox="0 0 35 35" style="enable-background:new 0 0 35 35;" xml:space="preserve">
<style type="text/css">
	.st0{fill:#01FFFF;}
</style>
<path class="st0" d="M34.9,17.59c0,8.7-6.43,16.06-15.04,17.23l0,0l0,0V22.2h4.5l0.71-4.57h-5.21v-2.5c0-1.9,0.62-3.58,2.4-3.58
	h2.86V7.56c-1.18-0.16-2.37-0.23-3.57-0.22c-4.18,0-6.64,2.21-6.64,7.25v3.04h-4.3v4.58h4.3v12.57l0,0l0,0
	c-9.5-1.44-16.03-10.3-14.6-19.8S10.6-1.06,20.1,0.38c8.5,1.29,14.79,8.59,14.79,17.2L34.9,17.59z"/>
</svg>
