<?xml version="1.0" encoding="utf-8"?>
<!-- Generator: Adobe Illustrator 23.0.1, SVG Export Plug-In . SVG Version: 6.00 Build 0)  -->
<svg version="1.1" id="Слой_1" xmlns="http://www.w3.org/2000/svg" xmlns:xlink="http://www.w3.org/1999/xlink" x="0px" y="0px"
	 viewBox="0 0 88.5 14.9" style="enable-background:new 0 0 88.5 14.9;" xml:space="preserve">
<style type="text/css">
	.st0{fill:#FFFFFF;}
	.st1{fill:#01FFFF;}
</style>
<g>
	<path class="st0" d="M13.5,10.2c0,0.2-0.1,0.4-0.1,0.6c-0.1,0.2-0.1,0.4-0.2,0.5c-0.1,0.1-0.1,0.2-0.1,0.3
		c-0.3,0.7-0.7,1.3-1.2,1.8c-0.5,0.4-1,0.8-1.5,1s-1.1,0.4-1.7,0.5c-0.6,0.1-1.1,0.1-1.6,0.1c0,0-0.1,0-0.2,0c-0.1,0-0.4,0-0.8,0
		c-0.1,0-0.3,0-0.4,0s-0.3,0-0.5,0c-0.1,0-0.3,0-0.4,0s-0.3,0-0.4-0.1c-0.1,0-0.2,0-0.3-0.1c-0.1,0-0.2,0-0.3-0.1
		c-0.2,0-0.4-0.1-0.7-0.3c-0.2-0.1-0.5-0.3-0.8-0.4c-0.1-0.1-0.2-0.2-0.4-0.4S1.5,13.2,1.4,13c-0.2-0.2-0.3-0.4-0.5-0.5
		c-0.1-0.2-0.2-0.3-0.2-0.4V8.4c0-0.1,0-0.2,0-0.4c0-0.2,0-0.3-0.1-0.4c0-0.1,0-0.3-0.1-0.4c0-0.1,0-0.2-0.1-0.2C0.4,7,0.4,7,0.3,7
		H0c0.1,0,0.1,0,0.2,0s0.2,0,0.2,0c-0.1,0-0.1,0-0.2,0S0.1,6.9,0,7V4.9h0.9c0,0,0.1,0,0.1,0.1c0,0.1,0.1,0.1,0.1,0.1h2.6V4.7H0V3.4
		h3.7l0,0c0,0,0,0,0-0.1c0,0,0-0.1,0-0.1l0,0H0V0.5h4.3v2.2c0,0,0,0.1,0,0s0,0,0.1,0v2.4h0.9v0.2H4.5v1c0,0-0.1,0-0.1,0.1v1.2h3.4
		v0.3H4.4v1.5c0,0.4,0.1,0.7,0.2,1s0.3,0.5,0.5,0.7c0.2,0.2,0.5,0.3,0.8,0.5c0.3,0.1,0.6,0.2,0.9,0.2c0.2,0,0.4,0,0.7-0.1
		c0.2,0,0.4-0.1,0.6-0.2s0.4-0.3,0.5-0.5s0.3-0.4,0.4-0.7c0,0,0.1-0.1,0.1-0.3c0-0.1,0.1-0.2,0.1-0.2V5.4h3c0.1-0.1,0.2-0.2,0.3-0.3
		s0.2-0.2,0.4-0.3h0.7v4.8C13.5,9.8,13.5,10,13.5,10.2z M3.8,5.1L3.8,5.1L3.7,5.3h0.1V5.1z M5.3,10.8v-0.2h0.4v0.2H5.3z M5.7,5.5
		c0,0,0,0.1,0,0.1s0,0.1,0,0.2c0,0.1,0,0.1,0,0.1c0,0.2,0,0.4,0,0.6c0,0.2,0,0.4,0,0.6c0-0.3,0-0.6-0.1-0.8c0,0,0-0.1,0-0.2
		c0-0.1,0-0.3,0-0.5c0-0.2,0-0.3,0-0.4c0-0.1,0-0.2,0-0.2c0,0,0,0.1,0,0.1s0.1,0.1,0.2,0.1v0.2C5.8,5.4,5.7,5.4,5.7,5.5z M5.9,10.8
		v-0.2h0.6v0.2H5.9z M7.1,5.4V5.2h0.5v0.2H7.1z M9.2,3.2V0.5h4.3v2.6H9.2z M13.4,4.6c0,0-0.1,0-0.1,0H9.2V3.4h4.3v1.2
		C13.5,4.6,13.5,4.6,13.4,4.6z"/>
	<path class="st0" d="M31.4,10.6c0,0.2-0.1,0.5-0.2,0.7h-0.4v3.1h-4.1l-3.1-4.6h-1.2l0.1-1.3c0,0,0.1,0,0.2,0l-1.2-1.8v7.7h-3.2
		v-0.8c0,0,0-0.1,0.1-0.3c0.1-0.2,0.1-0.4,0.2-0.5c0-0.1,0-0.2,0-0.4c0-0.2,0-0.3,0-0.3c0-0.2,0-0.4,0-0.5c0-0.2,0-0.4-0.1-0.5
		c0,0,0-0.1-0.1-0.2c0-0.1,0-0.1-0.1-0.2c-0.1,0-0.1,0.1-0.1,0.3c0,0.1,0,0.3-0.1,0.4c0,0,0,0,0,0c0,0,0,0,0,0.1v3.1h-0.7v-3
		c-0.1-0.1-0.2-0.1-0.3-0.2c-0.1-0.1-0.2-0.1-0.3-0.2c0,0,0.1,0,0.2-0.1c0.1-0.1,0.2-0.1,0.2-0.1c0.1,0,0.1,0,0.1,0.1v0v-0.1
		c-0.1,0-0.1-0.1-0.2-0.2s-0.2-0.1-0.2-0.1c0.1,0,0.1-0.1,0.2-0.1l0.2-0.1c-0.1-0.1-0.1-0.1-0.2-0.2c-0.1,0-0.2-0.1-0.2-0.1V1.9
		c0.1,0,0.2-0.1,0.2-0.1c0.1,0,0.1-0.1,0.2-0.1V0.3H18v10.2c0-0.2,0.1-0.4,0.1-0.6c0-0.2,0.1-0.3,0.1-0.4V4.2c0,0,0-0.1,0.1-0.2
		s0.1-0.2,0.1-0.3V0.9c0,0,0-0.1,0.1-0.3c0.1-0.1,0.1-0.3,0.1-0.4h2.6L26.6,8V0.3h4.1v1.5c-0.1,0-0.1,0-0.2,0c0,0-0.1,0-0.2,0
		c0,0.1-0.1,0.1-0.1,0.2c0,0.1,0,0.2,0,0.2v5.6c0,0.1,0,0.2,0.1,0.3c0,0,0.1,0,0.1,0c0,0,0.1,0,0.1,0v0c0,0,0,0,0,0c0,0,0,0,0,0
		c0,0-0.1,0-0.1,0c0,0-0.1,0-0.1,0.1c0.1,0.1,0.2,0.1,0.3,0.1c0,0,0,0.1,0,0.1c0,0,0,0.1,0,0.1s0,0.1,0,0.1s0.1,0.1,0.1,0.1v0.4H26
		l-0.1,0.1c0,0,0,0,0,0.1c0,0.1,0,0.2,0.1,0.4c0,0.2,0.1,0.2,0.2,0.2c0.1,0,0.2-0.1,0.2-0.2c0-0.1,0.1-0.2,0.1-0.4h0.2
		c0,0.1,0,0.2-0.1,0.2c0,0.1-0.1,0.2,0,0.3c0.1,0,0.1-0.1,0.2-0.2c0-0.1,0.1-0.2,0.1-0.3H27c0,0.1-0.1,0.2-0.1,0.2
		c0,0.1,0,0.2,0,0.3c0.1,0,0.1-0.1,0.2-0.2s0.1-0.2,0.1-0.3h0.2c0,0.1-0.1,0.1-0.1,0.2c0,0.1-0.1,0.2-0.1,0.3v0h0.1
		c0,0,0.1,0,0.1-0.1c0,0,0.1-0.1,0.1-0.2s0-0.1,0.1-0.2c0-0.1,0-0.1,0-0.1h0.2c0,0.1,0,0.2-0.1,0.2c0,0.1-0.1,0.2,0,0.3
		c0.1,0,0.2-0.1,0.2-0.2s0-0.2,0.1-0.3h0.2c0,0.1-0.1,0.2-0.1,0.2c0,0.1,0,0.2,0,0.3c0.1,0,0.1-0.1,0.2-0.2c0-0.1,0-0.2,0.1-0.3h0.2
		c0,0.1-0.1,0.1-0.1,0.2c0,0.1-0.1,0.2-0.1,0.2l0.1,0.1c0.1,0,0.1-0.1,0.2-0.2c0-0.1,0.1-0.3,0.1-0.3h0.2c0,0.1,0,0.2-0.1,0.2
		c0,0.1,0,0.2,0,0.3c0.1,0,0.1,0,0.2-0.2c0-0.1,0.1-0.3,0.1-0.4h0.2c0,0.1,0,0.2-0.1,0.2c0,0.1-0.1,0.2,0,0.3c0.1,0,0.1-0.1,0.2-0.2
		c0-0.1,0.1-0.2,0.1-0.3h0.2c0,0.1-0.1,0.2-0.1,0.2c0,0.1,0,0.2,0,0.3c0.1,0,0.1-0.1,0.2-0.2s0.1-0.2,0.1-0.3h0.2
		c0,0.1-0.1,0.2-0.1,0.2c0,0.1,0,0.2-0.1,0.3c0.1,0,0.2-0.1,0.2-0.2c0-0.1,0.1-0.2,0.1-0.3h0.2c0,0.1,0,0.2-0.1,0.2
		c0,0.1-0.1,0.2,0,0.3c0.1,0,0.2-0.1,0.2-0.2s0-0.2,0.1-0.3h0.2c0,0.1-0.1,0.2-0.1,0.2c0,0.1,0,0.2,0,0.3c0,0,0.1,0,0.1-0.1
		c0,0,0-0.1,0.1-0.2c0-0.1,0-0.1,0.1-0.2c0-0.1,0.1-0.1,0.1-0.1c0,0.1,0,0.2,0,0.2c0,0.1,0,0.2-0.1,0.2c0.1,0.1,0.3,0.1,0.4,0.1
		c0.1,0,0.3,0,0.4,0C31.5,10.1,31.5,10.3,31.4,10.6z M22.6,8.8l-0.1,0.7h0.1L22.6,8.8L22.6,8.8z M22.8,8.8L22.8,8.8l-0.1,0.7h0.1
		L22.8,8.8z M22.8,9.2c0,0.1,0,0.2,0,0.3C22.8,9.4,22.9,9.3,22.8,9.2c0-0.1,0-0.2,0-0.3C22.9,9,22.8,9.1,22.8,9.2z M23,9.1l-0.1,0.5
		H23L23,9.1L23,9.1z M23.1,9.2L23,9.5h0.1L23.1,9.2L23.1,9.2z M23.2,9.4L23.2,9.4l-0.1,0.2h0.1V9.4z"/>
	<path class="st1" d="M34.8,8.2c0,0.1-0.1,0.2-0.1,0.3h-0.2c0-0.1,0.1-0.2,0.1-0.4c0-0.1,0.1-0.2,0.1-0.3h0.2
		C34.9,7.9,34.9,8,34.8,8.2z M34.5,10.5V8.8h4.3v1.7H34.5z M35.2,14.5v-2.1c0-0.1-0.1-0.2-0.2-0.3c-0.1,0-0.2,0-0.3,0
		c0.1-0.1,0.1-0.1,0.1-0.2c0,0,0,0,0,0c0,0,0,0-0.1,0c0,0-0.1,0,0,0c0,0,0,0,0-0.1c0,0,0,0,0,0v0.1c0-0.1-0.1-0.1-0.2-0.1v-0.2h2.2
		l0-0.1h-2.2v-1h4.3V13H37c0,0,0,0.1,0,0.1h1.9v1.5H35.2z M40.1,3.4c0-0.2-0.1-0.3-0.3-0.3c0.1,0,0.2,0,0.2,0c0,0,0,0,0,0
		c0,0,0,0-0.1,0s-0.1,0-0.1,0c0,0-0.1,0-0.1,0h-0.9l-0.1,0.1v1.5l0.1,0.1c0,0,0,0,0.1,0v1.2h5.5v2.3h-3.7V7.6h-6.1V7.2
		c0,0,0.1,0,0.1,0c0.1,0,0.1,0,0.2,0c0.1,0,0.1,0,0.2-0.1S35.2,7,35.2,7V3.3c0.1,0,0.2-0.1,0.2-0.1V1.6c0-0.1-0.1-0.1-0.2-0.1
		c-0.1,0-0.1,0-0.2,0c0,0,0,0,0,0c0,0,0,0,0-0.1c0,0-0.1-0.1-0.2-0.1c-0.1,0-0.2,0-0.2,0.1V0.4h10.7v3H40.1z M35,12.1L35,12.1
		C34.9,12.1,34.9,12.1,35,12.1L35,12.1C34.9,12.1,34.9,12.1,35,12.1C34.9,12.1,34.9,12.2,35,12.1C34.9,12.2,34.9,12.2,35,12.1
		C35,12.1,35,12.1,35,12.1L35,12.1z M35.2,8.2c0,0.1-0.1,0.2-0.1,0.3h-0.2c0-0.1,0.1-0.2,0.1-0.4c0-0.1,0.1-0.2,0.1-0.3h0.2
		C35.3,7.9,35.2,8,35.2,8.2z M35.2,1.3l-0.2,0v0.1L35.2,1.3L35.2,1.3z M35.6,8.2c0,0.1-0.1,0.2-0.1,0.3l-0.2,0
		c0-0.1,0.1-0.2,0.1-0.3c0-0.1,0.1-0.2,0.1-0.3h0.2C35.7,7.9,35.6,8,35.6,8.2z M36,8.2l-0.1,0.3h-0.2c0-0.1,0.1-0.2,0.1-0.3
		c0-0.1,0.1-0.2,0.1-0.3h0.2C36.1,7.9,36,8,36,8.2z M36.4,8.2c0,0.1-0.1,0.2-0.1,0.3h-0.2c0.1-0.2,0.1-0.4,0.2-0.6h0.2
		C36.4,8,36.4,8.1,36.4,8.2z M36.8,8.2c0,0.1-0.1,0.2-0.1,0.3h-0.2c0.1-0.2,0.1-0.4,0.2-0.6h0.2C36.8,7.9,36.8,8,36.8,8.2z
		 M36.8,11.8L36.8,11.8L36.8,11.8L36.8,11.8L36.8,11.8z M36.8,12L36.8,12L36.8,12L36.8,12L36.8,12z M36.8,12.2L36.8,12.2l-0.1,0.1
		h0.1V12.2z M36.9,12.4L36.9,12.4L36.9,12.4L36.9,12.4L36.9,12.4z M37.2,8.2c0,0.1-0.1,0.2-0.1,0.3h-0.2c0-0.1,0.1-0.3,0.1-0.4
		C37,8,37,7.9,37,7.9h0.2C37.2,7.9,37.2,8,37.2,8.2z M36.9,12.5L36.9,12.5L36.9,12.5L36.9,12.5L36.9,12.5z M36.9,12.7L36.9,12.7
		l-0.1,0.1h0.1V12.7z M37,12.9L37,12.9L37,12.9L37,12.9L37,12.9z M37.5,8.2c0,0.1-0.1,0.2-0.1,0.3h-0.2V8.4c0,0,0-0.1,0.1-0.2
		c0-0.1,0.1-0.2,0.1-0.3h0.2C37.6,7.9,37.6,8,37.5,8.2z M37.9,8.2l-0.1,0.3l-0.2,0c0-0.1,0.1-0.2,0.1-0.3c0-0.1,0.1-0.2,0.1-0.3H38
		C38,7.9,38,8,37.9,8.2z M38.3,8.2l-0.1,0.3H38c0-0.1,0-0.2,0.1-0.3c0-0.1,0.1-0.2,0.1-0.3h0.2C38.4,7.9,38.4,8,38.3,8.2z M38.7,8.2
		l-0.1,0.3h-0.2c0-0.1,0-0.2,0.1-0.3c0-0.1,0.1-0.2,0.1-0.3h0.2C38.8,7.9,38.7,8,38.7,8.2z M39.1,8.2c0,0.1-0.1,0.2-0.1,0.3h-0.2
		c0-0.1,0.1-0.3,0.1-0.4C38.9,8,39,7.9,39,7.9h0.2C39.2,7.9,39.1,8,39.1,8.2z M39.5,8.2c0,0.1-0.1,0.2-0.1,0.3h-0.2
		c0-0.1,0.1-0.3,0.1-0.4c0-0.1,0.1-0.2,0.1-0.3h0.2C39.5,7.9,39.5,8,39.5,8.2z M39.9,8.2c0,0.1-0.1,0.2-0.1,0.3l-0.2,0
		c0-0.1,0.1-0.2,0.1-0.3c0-0.1,0.1-0.2,0.1-0.3H40C39.9,7.9,39.9,8,39.9,8.2z M40.3,8.2l-0.1,0.3h-0.2C40,8.4,40,8.3,40,8.2
		c0-0.1,0.1-0.2,0.1-0.3h0.2C40.3,7.9,40.3,8,40.3,8.2z"/>
	<path class="st1" d="M53.5,10.1h-1.2c0,0,0,0,0.1,0c0,0,0.1,0,0.2,0s0.2,0,0.4,0s0.4,0,0.7,0v4.3h-4.4v-1.8
		c-0.1,0.1-0.2,0.2-0.3,0.3c-0.1,0.1-0.2,0.2-0.3,0.3c0-0.1,0-0.3,0-0.4c0-0.2,0-0.3,0-0.4c0.1-0.1,0.2-0.3,0.3-0.4
		c0.1-0.1,0.3-0.2,0.4-0.4l0-0.4L48.7,12c0-0.1,0-0.3,0-0.4c0-0.2,0-0.3,0-0.4c0.1-0.2,0.2-0.3,0.3-0.4c0.1-0.1,0.3-0.2,0.4-0.4
		l0-0.3l-0.6,0.7c0-0.1,0-0.3,0-0.4c0-0.2,0-0.3,0-0.4c0.1-0.2,0.2-0.3,0.3-0.4c0.1-0.1,0.3-0.2,0.4-0.4l0-0.3l-0.6,0.7
		c0-0.1,0-0.3,0-0.4c0-0.2,0-0.3,0-0.4c0.1-0.2,0.2-0.3,0.3-0.4c0.1-0.1,0.3-0.2,0.4-0.4l0-0.3l-0.6,0.7c0-0.1,0-0.3,0-0.4
		c0-0.2,0-0.3,0-0.4c0.1-0.1,0.2-0.3,0.3-0.4s0.3-0.2,0.4-0.4l0-0.3L49,6.7c-0.1,0.1-0.2,0.2-0.3,0.4c0-0.1,0-0.3,0-0.4
		c0-0.1,0-0.3,0-0.4C48.7,6.1,48.8,6,49,5.9s0.3-0.2,0.4-0.4l0-0.3L49,5.5c-0.1,0.1-0.2,0.2-0.3,0.4c0-0.1,0-0.3,0-0.4
		c0-0.1,0-0.3,0-0.4c0-0.1,0.1-0.2,0.3-0.3c0.2-0.1,0.3-0.3,0.4-0.4c0,0,0-0.1,0-0.1s0-0.1,0-0.2c0.1,0,0.2,0,0.3-0.1
		s0.2-0.2,0.3-0.3l0-0.4l-1.3,1.4c0-0.1,0-0.3,0-0.4c0-0.2,0-0.3,0-0.4c0.1-0.2,0.2-0.3,0.3-0.4s0.3-0.2,0.4-0.4c0,0,0-0.1,0-0.1
		c0-0.1,0-0.1,0-0.2l-0.6,0.7c0-0.1,0-0.3,0-0.4c0-0.1,0-0.3,0-0.4l0.1-0.1c0.1-0.1,0.1-0.2,0.2-0.3C49.1,2.1,49.2,2,49.2,2
		c0.1-0.1,0.1-0.2,0.1-0.2V0.2h4.4V3h-0.2c0,0.1,0,0.2,0,0.3c0,0.1,0,0.2,0.1,0.3c0,0.1,0.1,0.2,0.1,0.3l0,0.1v0.3h-3.6l-0.2,0.2
		h3.8v3.7L53.5,10.1z M51,3.4c0-0.2,0-0.3-0.1-0.5h-0.4l0.2,1h0.3C51,3.8,51,3.6,51,3.4z M51.3,3H51c0,0.2,0.1,0.4,0.1,0.6
		c0,0.2,0,0.3,0.1,0.5h0.4L51.3,3z M51.8,3.4c0-0.1,0-0.3-0.1-0.4h-0.4l0.2,1h0.3C51.9,3.8,51.8,3.5,51.8,3.4z M52.1,3h-0.3
		c0,0.2,0.1,0.4,0.1,0.6c0,0.2,0,0.3,0.1,0.5h0.4L52.1,3z M52.6,3h-0.4l0.2,1h0.3L52.6,3z M53,3h-0.3c0,0.2,0,0.4,0.1,0.5
		c0,0.2,0,0.3,0.1,0.5h0.4L53,3z M53.5,3.4c0-0.1,0-0.3-0.1-0.4H53l0.2,1h0.3C53.5,3.8,53.5,3.5,53.5,3.4z"/>
	<path class="st1" d="M67.7,9.8V8.8h-2.2l-0.1,1.9H65c-0.1-0.1-0.1-0.3-0.2-0.4s-0.2-0.3-0.3-0.4l-2.8,4.5h-4.9l1.3-2c0,0,0,0,0,0
		s0,0-0.1,0c0,0-0.1,0-0.1,0.1c0,0-0.1,0.1-0.1,0.1l0,0c0,0,0,0,0,0c0,0,0,0,0,0c0.1-0.1,0.2-0.3,0.4-0.6s0.4-0.7,0.6-1.1
		c0.2-0.4,0.5-0.8,0.7-1.2s0.5-0.8,0.7-1.2c0.2-0.4,0.4-0.6,0.6-0.9C60.9,7.3,61,7.2,61,7.2c0.1,0,0.2,0,0.2,0.1l-0.8,1.4
		c0,0,0.1,0.1,0.1,0.1c0,0,0-0.1,0-0.2s0.1-0.2,0.1-0.3s0.1-0.2,0.2-0.3C61,7.9,61,7.8,61.1,7.7c0,0,0,0,0.1,0c0,0,0,0,0.1,0L61.7,7
		l-1.3-1.9h8.2l-1.3,2l1.7,2.6H67.7z M70.1,3H67v1.4h2.2c-0.1,0.1-0.2,0.3-0.3,0.5h-8.6c0-0.1-0.1-0.1-0.1-0.2
		C60.1,4.5,60,4.4,60,4.4h0.8V3h-1.7l-1.8-2.7h4.8L63.7,3h-0.3v1.4h0.7V3.7c0.1,0.1,0.2,0.3,0.2,0.4s0.2,0.3,0.3,0.4
		c0,0,0.1,0,0.1-0.1c0,0,0-0.1,0.1-0.1c0,0,0,0,0.1,0s0.1,0,0.1,0c0,0,0-0.1,0-0.1c0,0,0-0.1,0-0.1c0.3-0.6,0.7-1.3,1.1-1.9
		c0.4-0.6,0.7-1.3,1.1-1.9h4.7L70.1,3z M61.4,7c0,0-0.1,0.1-0.1,0.1c0,0-0.1-0.1-0.1-0.1c0-0.1,0.1-0.1,0.2-0.2c0,0,0.1,0,0.1,0
		C61.4,7,61.4,7,61.4,7z M62.9,3h-1.5v1.4h1.5V3z M67.3,14.4l-2.3-3.6h3.7c0,0.1,0.1,0.3,0.1,0.4c0,0.2,0.1,0.3,0.1,0.5h1.4l0.8,1.2
		h-2.1v0.3h2.3l0.8,1.3H67.3z M65.8,9.7c0,0.2,0,0.4-0.1,0.5V10C65.6,10,65.6,9.9,65.8,9.7c-0.1-0.2,0-0.4,0-0.5
		C65.8,9.4,65.8,9.6,65.8,9.7z M65.9,9.8c0,0.2,0,0.3-0.1,0.5V9.9c0,0,0-0.1,0-0.3c0-0.1,0.1-0.3,0.1-0.4
		C65.9,9.4,65.9,9.6,65.9,9.8z M66,9.7c0,0.2,0,0.4,0,0.5L66,9.7c0-0.1,0-0.1,0-0.2c0-0.1,0-0.2,0-0.2C66,9.4,66,9.6,66,9.7z
		 M66.1,9.8c0,0.2,0,0.3-0.1,0.5L66.1,9.8c0-0.2,0-0.4,0-0.5C66.2,9.4,66.1,9.6,66.1,9.8z M66.3,9.4c0,0.1,0,0.2,0,0.3
		c0,0.1,0,0.2,0,0.3c0,0.1,0,0.2-0.1,0.3c0-0.2,0-0.4,0-0.6s0-0.3,0-0.5C66.3,9.3,66.3,9.3,66.3,9.4z M66.4,9.8c0,0.2,0,0.3-0.1,0.5
		c0-0.3,0-0.5,0-0.6V9.3l0.1,0C66.4,9.4,66.4,9.6,66.4,9.8z M66.4,10.3c0-0.2,0-0.3,0.1-0.5c0-0.2,0-0.3,0.1-0.5v1H66.4z M66.7,9.8
		c0,0.2,0,0.3-0.1,0.5v-0.2C66.6,10,66.6,9.9,66.7,9.8c0-0.2,0-0.4,0-0.5C66.7,9.4,66.7,9.6,66.7,9.8z M66.8,9.8
		c0,0.2,0,0.3-0.1,0.5V9.9c0,0,0-0.1,0-0.3c0-0.1,0.1-0.3,0.1-0.4C66.8,9.4,66.8,9.6,66.8,9.8z M66.9,9.8c0,0.2,0,0.3,0,0.5
		L66.9,9.8c0-0.1,0-0.2,0-0.3s0-0.2,0.1-0.2L66.9,9.8z M67.1,9.8c0,0.2,0,0.3-0.1,0.5C67,10.1,67,9.9,67.1,9.8c0-0.2,0-0.4,0-0.5
		C67.1,9.4,67.1,9.6,67.1,9.8z M67.2,9.8c0,0.2,0,0.3-0.1,0.5V10C67.1,10,67.1,9.9,67.2,9.8c-0.1-0.3,0-0.4,0-0.5V9.8z M67.3,9.8
		c0,0.2,0,0.3-0.1,0.5L67.3,9.8c-0.1,0-0.1-0.1,0-0.2c0-0.1,0.1-0.2,0.1-0.3C67.4,9.4,67.4,9.6,67.3,9.8z M67.5,9.3l-0.1,1h-0.1
		L67.5,9.3L67.5,9.3z M67.6,9.8c0,0.2,0,0.3-0.1,0.5v-0.2C67.5,10.1,67.5,9.9,67.6,9.8c0-0.2,0-0.4,0-0.5
		C67.6,9.4,67.6,9.6,67.6,9.8z M69.6,10.7c0-0.1,0-0.2-0.1-0.3l0.2,0.3H69.6z"/>
	<path class="st1" d="M87,3.9C87,4,87,4,87.1,4s0.1,0,0.2,0c-0.1,0.1-0.2,0.1-0.4,0.2s-0.3,0.2-0.3,0.2c0,0-0.1,0-0.1-0.1
		c-0.1,0-0.2,0-0.3,0l-0.1,0V3.1C86,3,85.8,2.9,85.7,2.8c-0.2-0.1-0.3-0.2-0.3-0.2h-4.3c0,0-0.1,0.1-0.1,0.1c0,0,0,0.1-0.1,0.1h-1.1
		c0,0-0.1,0-0.1-0.1c0-0.1-0.1-0.1-0.1-0.2h-4.4V0.4h2.6c0,0,0,0-0.1-0.1s-0.1-0.1-0.1-0.1h7.7c0,0,0.1,0,0.2,0.1s0.1,0.1,0.2,0.1
		h2.8v2.6H87l0,0.2h1.5v0.6H87z M84.1,4.3c0,0,0,0.1-0.1,0.1l-0.1,0.1h-1.7c0,0-0.1,0-0.2,0.1c-0.1,0-0.1,0.1-0.2,0.1h1.9v2h-4.1
		V5.2h-2.6c0.1-0.1,0.2-0.2,0.3-0.2c0.1-0.1,0.2-0.2,0.3-0.3c0.1-0.1,0.2-0.1,0.3-0.2s0.1-0.1,0.2-0.1h1.1c0,0,0.1,0,0.2,0
		s0.2-0.1,0.2-0.1h-2.8c0-0.1,0-0.1,0-0.1v0c0,0,0,0-0.1,0c0,0-0.1,0,0,0c0,0,0,0,0-0.1l-0.1,0.1c0,0,0-0.1,0-0.1c0-0.1,0-0.1,0-0.1
		c0,0,0,0,0,0c0,0-0.1,0-0.1,0h-0.3h-0.5c0,0,0.1-0.1,0.2-0.2C75.9,3.7,76,3.6,76,3.6c0.1-0.1,0.1-0.1,0.2-0.2
		c0.1,0,0.2-0.1,0.2-0.1c0,0,0,0,0,0c0,0,0,0,0-0.1c0-0.1,0-0.2-0.1-0.2h-0.2c-0.1,0-0.2,0-0.3,0.1c-0.1,0.1-0.2,0.1-0.3,0.2
		c-0.1,0.1-0.2,0.2-0.3,0.3c-0.1,0.1-0.2,0.1-0.2,0.2V2.7h4c0,0,0.1,0,0.2,0.1C79.5,2.9,79.6,3,79.6,3h1.6c0,0,0.1-0.1,0.1-0.1
		c0,0,0.1-0.1,0.1-0.2h2.3c0,0,0.1,0,0.1,0.1S84,2.8,84,2.8h1.3c0,0,0.1,0,0.2,0.1c0.1,0.1,0.2,0.2,0.3,0.2v1.1H84.1z M77.7,3.2
		c0-0.1-0.1-0.1-0.1-0.1h-0.8c0,0,0,0.1,0,0.1s0,0.1,0,0.1h1.1C77.8,3.3,77.7,3.2,77.7,3.2z M79.4,3.9h-2.5V4c0,0.1,0,0.1,0,0.1h2.5
		V3.9z M78.3,0.1c-0.1,0-0.1-0.1-0.2-0.1h0.2c0,0,0.1,0,0.1,0.1c0,0,0.1,0.1,0.1,0.1C78.4,0.2,78.3,0.1,78.3,0.1z M78.7,0.1
		c-0.1,0-0.2-0.1-0.3-0.1h0.2C78.7,0,78.7,0,78.7,0.1c0.1,0,0.1,0,0.2,0C78.8,0.2,78.8,0.2,78.7,0.1z M79,0.1
		c-0.1,0-0.2-0.1-0.3-0.1H79L79,0.1c0.1,0,0.1,0,0.2,0C79.2,0.2,79.1,0.2,79,0.1z M79.4,0.1c-0.1,0-0.2-0.1-0.3-0.1h0.3L79.4,0.1
		c0.1,0,0.1,0,0.2,0C79.5,0.2,79.5,0.2,79.4,0.1z M79.7,4l-0.2,0v0.1L79.7,4L79.7,4z M79.8,0.1c-0.1,0-0.2-0.1-0.3-0.1h0.3L79.8,0.1
		c0.1,0,0.1,0,0.2,0C79.9,0.2,79.8,0.2,79.8,0.1z M79.7,14.6v-1.7h0.5c0,0,0-0.1,0-0.1s0-0.1,0-0.1v-0.4c0-0.2,0-0.6,0-1
		c0,0,0,0,0.1,0c0,0,0,0,0.1,0c0-0.1,0-0.1,0-0.3s0-0.2,0-0.3c0-0.1,0-0.2,0-0.3c0-0.1,0-0.1,0-0.2c0,0,0-0.1,0-0.1
		c0-0.1,0-0.2,0-0.2c0-0.1,0-0.2,0-0.3c0-0.1,0-0.2,0-0.2c-0.1-0.1-0.2-0.1-0.3-0.1c-0.1,0-0.2,0-0.3,0V7h4.1v3.5c0,0,0,0.1,0.1,0.2
		c0.1,0.1,0.1,0.1,0.2,0.2v3.8H79.7z M80.1,0.1C80.1,0.1,80,0,79.9,0h0.3L80.1,0.1c0.1,0,0.1,0,0.2,0C80.3,0.2,80.2,0.2,80.1,0.1z
		 M80.5,0.1c-0.1,0-0.2-0.1-0.3-0.1h0.3L80.5,0.1c0.1,0,0.1,0,0.2,0C80.6,0.2,80.6,0.2,80.5,0.1z M80.8,0.1c-0.1,0-0.1-0.1-0.2-0.1
		h0.3l0.1,0.1c0,0,0.1,0.1,0.1,0.1C80.9,0.2,80.9,0.2,80.8,0.1z M81.2,0.1C81.1,0.1,81,0,81,0h0.2L81.2,0.1c0.1,0,0.2,0,0.2,0
		C81.3,0.2,81.3,0.1,81.2,0.1z M81.5,0.1c-0.1,0-0.2-0.1-0.2-0.1h0.2L81.5,0.1c0.1,0,0.2,0,0.2,0C81.7,0.2,81.6,0.1,81.5,0.1z
		 M81.9,0.1c-0.1,0-0.2-0.1-0.2-0.1h0.2c0,0,0.1,0,0.1,0.1c0,0,0.1,0.1,0.1,0.1C82.1,0.2,82,0.1,81.9,0.1z M82.1,3.2
		c-0.1,0-0.1-0.1-0.2-0.1h-0.1C81.8,3.1,81.9,3.2,82.1,3.2c0.1,0.1,0.2,0.1,0.2,0.1C82.2,3.3,82.1,3.2,82.1,3.2z M82.3,0.1
		c-0.1,0-0.2-0.1-0.2-0.1h0.2L82.3,0.1c0.1,0,0.2,0,0.2,0C82.4,0.2,82.4,0.1,82.3,0.1z M82.7,3.2L82.7,3.2L82.7,3.2L82.7,3.2
		L82.7,3.2z M83.5,3.1c0,0,0.1,0.1,0.1,0.1s0.1,0.1,0.1,0.1c0,0,0.1,0,0.1-0.1c0,0,0-0.1,0.1-0.1H83.5z M85.1,3.9H85V4L85.1,3.9
		L85.1,3.9z M85.2,3.1h-0.1v0.2h0.1V3.1z M86.1,2.6h-0.5c0.1,0,0.2,0.1,0.3,0.2C86,2.8,86,2.9,86.1,2.9V2.6z"/>
</g>
</svg>
