<?xml version="1.0" encoding="utf-8"?>
<!-- Generator: Adobe Illustrator 23.0.1, SVG Export Plug-In . SVG Version: 6.00 Build 0)  -->
<svg version="1.1" id="Слой_1" xmlns="http://www.w3.org/2000/svg" xmlns:xlink="http://www.w3.org/1999/xlink" x="0px" y="0px"
	 viewBox="0 0 35 35" style="enable-background:new 0 0 35 35;" xml:space="preserve">
<style type="text/css">
	.st0{fill:#01FFFF;}
</style>
<path class="st0" d="M34.66,8.15c-0.25-0.77-0.62-1.47-1.11-2.09c-1.26-1.63-3.24-2.68-5.46-2.68H6.91c-2.22,0-4.2,1.05-5.46,2.68
	C0.96,6.68,0.59,7.38,0.34,8.15C0.11,8.83,0,9.55,0,10.3V24.7c0,3.82,3.09,6.91,6.91,6.91h21.18c3.82,0,6.91-3.09,6.91-6.91V10.3
	C35,9.55,34.89,8.83,34.66,8.15z M6.91,5.65h21.18c1.59,0,3,0.8,3.85,2.03L20.79,18.83c-1.81,1.82-4.76,1.82-6.57,0L3.06,7.68
	C3.91,6.45,5.32,5.65,6.91,5.65z M32.74,24.7c0,2.56-2.09,4.65-4.65,4.65H6.91c-2.56,0-4.65-2.09-4.65-4.65V10.3
	c0-0.07,0-0.15,0.01-0.21l10.34,10.34c1.35,1.35,3.12,2.02,4.89,2.02s3.53-0.67,4.89-2.02l10.34-10.34
	c0.01,0.07,0.01,0.15,0.01,0.21V24.7z"/>
</svg>
