<svg xmlns="http://www.w3.org/2000/svg" viewBox="0 0 35 35"><path fill="#01ffff" d="M34.66 8.15c-.25-.77-.62-1.47-1.11-2.09a6.89 6.89 0 0 0-5.46-2.68H6.91a6.89 6.89 0 0 0-5.46 2.68C.96 6.68.59 7.38.34 8.15.11 8.83 0 9.55 0 10.3v14.4c0 3.82 3.09 6.91 6.91 6.91h21.18c3.82 0 6.91-3.09 6.91-6.91V10.3c0-.75-.11-1.47-.34-2.15zM6.91 5.65h21.18c1.59 0 3 .8 3.85 2.03L20.79 18.83a4.635 4.635 0 0 1-6.57 0L3.06 7.68a4.674 4.674 0 0 1 3.85-2.03zM32.74 24.7a4.66 4.66 0 0 1-4.65 4.65H6.91a4.66 4.66 0 0 1-4.65-4.65V10.3c0-.07 0-.15.01-.21l10.34 10.34c1.35 1.35 3.12 2.02 4.89 2.02s3.53-.67 4.89-2.02l10.34-10.34c.01.07.01.15.01.21v14.4z"/></svg>