<?xml version="1.0" encoding="utf-8"?>
<!-- Generator: Adobe Illustrator 23.0.1, SVG Export Plug-In . SVG Version: 6.00 Build 0)  -->
<svg version="1.1" id="Слой_1" xmlns="http://www.w3.org/2000/svg" xmlns:xlink="http://www.w3.org/1999/xlink" x="0px" y="0px"
	 viewBox="0 0 35 35" style="enable-background:new 0 0 35 35;" xml:space="preserve">
<style type="text/css">
	.st0{fill:#01FFFF;}
</style>
<g>
	<g>
		<path class="st0" d="M21.3,34.8h-7.5c-5.2,0-9.5-4.3-9.5-9.5V13.5c0-7.3,6-13.3,13.3-13.3s13.3,6,13.3,13.3v11.8
			C30.8,30.5,26.5,34.8,21.3,34.8z M17.5,2.7c-5.9,0-10.7,4.8-10.7,10.7v11.8c0,3.9,3.1,7,7,7h7.5c3.9,0,7-3.1,7-7V13.5
			C28.2,7.6,23.4,2.7,17.5,2.7z"/>
	</g>
	<g>
		<path class="st0" d="M17.5,20.7c-2.1,0-3.8-1.7-3.8-3.8v-5.1c0-2.1,1.7-3.8,3.8-3.8c2.1,0,3.8,1.7,3.8,3.8v5.1
			C21.3,19,19.6,20.7,17.5,20.7z M17.5,10.6c-0.7,0-1.3,0.6-1.3,1.3v5.1c0,0.7,0.6,1.3,1.3,1.3c0.7,0,1.3-0.6,1.3-1.3v-5.1
			C18.8,11.1,18.2,10.6,17.5,10.6z"/>
	</g>
</g>
</svg>
