<svg xmlns="http://www.w3.org/2000/svg" id="Слой_1" x="0" y="0" version="1.1" viewBox="0 0 35 35" xml:space="preserve"><style>.st0{fill:#01ffff}</style><path d="M21.3 34.8h-7.5c-5.2 0-9.5-4.3-9.5-9.5V13.5C4.3 6.2 10.3.2 17.6.2s13.3 6 13.3 13.3v11.8c-.1 5.2-4.4 9.5-9.6 9.5zM17.5 2.7c-5.9 0-10.7 4.8-10.7 10.7v11.8c0 3.9 3.1 7 7 7h7.5c3.9 0 7-3.1 7-7V13.5c-.1-5.9-4.9-10.8-10.8-10.8z" class="st0"/><path d="M17.5 20.7c-2.1 0-3.8-1.7-3.8-3.8v-5.1c0-2.1 1.7-3.8 3.8-3.8 2.1 0 3.8 1.7 3.8 3.8v5.1c0 2.1-1.7 3.8-3.8 3.8zm0-10.1c-.7 0-1.3.6-1.3 1.3V17c0 .7.6 1.3 1.3 1.3.7 0 1.3-.6 1.3-1.3v-5.1c0-.8-.6-1.3-1.3-1.3z" class="st0"/></svg>