<?xml version="1.0" encoding="utf-8"?>
<!-- Generator: Adobe Illustrator 23.0.1, SVG Export Plug-In . SVG Version: 6.00 Build 0)  -->
<svg version="1.1" id="Слой_1" xmlns="http://www.w3.org/2000/svg" xmlns:xlink="http://www.w3.org/1999/xlink" x="0px" y="0px"
	 viewBox="0 0 150 150" style="enable-background:new 0 0 150 150;" xml:space="preserve">
<style type="text/css">
	.st0{fill:#10FFFF;}
</style>
<g>
	<g>
		<g>
			<path class="st0" d="M75,0C33.6,0,0,33.6,0,75c0,17,5.7,32.8,15.3,45.4l9.6-9.6C17.7,100.7,13.4,88.3,13.4,75
				c0-33.9,27.6-61.6,61.6-61.6c33.9,0,61.6,27.6,61.6,61.6c0,33.9-27.6,61.6-61.6,61.6c-13.3,0-25.7-4.3-35.8-11.5l-9.6,9.6
			C42.2,144.3,58,150,75,150c41.4,0,75-33.6,75-75C150,33.6,116.4,0,75,0z"/>
		</g>
	</g>
	<g>
		<path class="st0" d="M50.2,115.7V34.3L120.8,75L50.2,115.7z M63.7,57.5v34.9L93.9,75L63.7,57.5z"/>
	</g>
</g>
</svg>
