<?xml version="1.0" encoding="utf-8"?>
<!-- Generator: Adobe Illustrator 23.0.1, SVG Export Plug-In . SVG Version: 6.00 Build 0)  -->
<svg version="1.1" id="Слой_1" xmlns="http://www.w3.org/2000/svg" xmlns:xlink="http://www.w3.org/1999/xlink" x="0px" y="0px"
	 viewBox="0 0 70.9 50" style="enable-background:new 0 0 70.9 50;" xml:space="preserve">
<style type="text/css">
	.st0{fill:#01FFFF;}
</style>
<g>
	<path class="st0" d="M0.3,44c8.1-4.6,11.8-9.6,11.6-15.7c-3.9,0-7.8,0-11.8,0C0,18.8,0,9.5,0,0c9.7,0,19.5,0,29.4,0
		c0,1.3,0,2.5,0,3.7c-0.1,7,0.3,14.1-0.6,21C27.2,38.1,17.5,46.9,4.5,50C4,50.1,3,49.7,2.7,49.3C1.8,47.6,1.1,45.8,0.3,44z"/>
	<path class="st0" d="M53.4,28.2c-4.1,0-8,0-12,0c0-9.5,0-18.8,0-28.2c9.8,0,19.5,0,29.2,0c0.1,0.3,0.2,0.5,0.2,0.8
		c0,7.4,0.3,14.7-0.3,22.1c-1,14-10.7,24-24.6,27.1c-0.6,0.1-1.6-0.4-1.9-0.9c-0.9-1.6-1.6-3.3-2.5-5.2
		C48.4,40.8,52.8,36.1,53.4,28.2z"/>
</g>
</svg>
