<svg xmlns="http://www.w3.org/2000/svg" id="Слой_1" x="0" y="0" version="1.1" viewBox="0 0 35 35" xml:space="preserve"><style>.st0{fill:#01ffff}</style><path d="M28.93 16.55c.32-.05.59-.09.85-.14 2.31-.5 4.59.98 5.09 3.29.01.06.03.12.04.19a4.38 4.38 0 0 1-3.4 5.18c-.01 0-.02 0-.03.01-.33.06-.67.09-1.01.09H19.04c-.84 0-1.2-.22-1.19-1.15.05-4.21.06-8.42.04-12.63 0-.73.27-1.02.91-1.25 4.11-1.47 8.97 1.22 9.88 5.48.06.31.16.6.25.93zM16.81 11.34c.61 4.34.61 12.52-.07 13.92-.15-.28-.25-.58-.31-.9.06-4.26.14-8.52.22-12.78 0-.03.06-.08.16-.24zM15.12 13.09c.36 3.99.76 7.98.02 11.97-.85-3.97-.36-7.96-.02-11.97zM13.41 13.62c.73 3.21.73 10.31 0 11.45-.76-3.81-.3-7.63 0-11.45zM10.17 13.13c.34 3.99.84 7.96.02 11.94-.86-3.98-.27-7.96-.02-11.94zM11.84 25.07c-.85-3.99-.3-7.96 0-11.93.31 3.98.77 7.96 0 11.93zM8.54 13.68c.36 3.8.78 7.62.02 11.41-.86-3.81-.3-7.61-.02-11.41zM6.8 25.08c-.65-1-.68-7.59-.05-10.19.53 1.57.85 9.45.05 10.19zM3.4 25.23a29.47 29.47 0 0 1 0-7.96c.62.93.67 6.8 0 7.96zM4.91 25.01v-7.32c.74 1.09.8 6.35.25 7.35l-.25-.03zM1.86 24.49c-.47-2.3-.48-4.67-.01-6.98.49 2.3.5 4.68.01 6.98zM0 23.06v-4.24h.25c.44 1.38.45 2.86.03 4.24H0z" class="st0"/></svg>