<?xml version="1.0" encoding="utf-8"?>
<!-- Generator: Adobe Illustrator 23.0.1, SVG Export Plug-In . SVG Version: 6.00 Build 0)  -->
<svg version="1.1" id="Слой_1" xmlns="http://www.w3.org/2000/svg" xmlns:xlink="http://www.w3.org/1999/xlink" x="0px" y="0px"
	 viewBox="0 0 35 35" style="enable-background:new 0 0 35 35;" xml:space="preserve">
<style type="text/css">
	.st0{fill:#01FFFF;}
</style>
<g>
	<path class="st0" d="M28.93,16.55c0.32-0.05,0.59-0.09,0.85-0.14c2.31-0.5,4.59,0.98,5.09,3.29c0.01,0.06,0.03,0.12,0.04,0.19
		c0.49,2.37-1.03,4.69-3.4,5.18c-0.01,0-0.02,0-0.03,0.01c-0.33,0.06-0.67,0.09-1.01,0.09c-3.81,0-7.62,0-11.43,0
		c-0.84,0-1.2-0.22-1.19-1.15c0.05-4.21,0.06-8.42,0.04-12.63c0-0.73,0.27-1.02,0.91-1.25c4.11-1.47,8.97,1.22,9.88,5.48
		C28.74,15.93,28.84,16.22,28.93,16.55z"/>
	<path class="st0" d="M16.81,11.34c0.61,4.34,0.61,12.52-0.07,13.92c-0.15-0.28-0.25-0.58-0.31-0.9c0.06-4.26,0.14-8.52,0.22-12.78
		C16.65,11.55,16.71,11.5,16.81,11.34z"/>
	<path class="st0" d="M15.12,13.09c0.36,3.99,0.76,7.98,0.02,11.97C14.29,21.09,14.78,17.1,15.12,13.09z"/>
	<path class="st0" d="M13.41,13.62c0.73,3.21,0.73,10.31,0,11.45C12.65,21.26,13.11,17.44,13.41,13.62z"/>
	<path class="st0" d="M10.17,13.13c0.34,3.99,0.84,7.96,0.02,11.94C9.33,21.09,9.92,17.11,10.17,13.13z"/>
	<path class="st0" d="M11.84,25.07c-0.85-3.99-0.3-7.96,0-11.93C12.15,17.12,12.61,21.1,11.84,25.07z"/>
	<path class="st0" d="M8.54,13.68c0.36,3.8,0.78,7.62,0.02,11.41C7.7,21.28,8.26,17.48,8.54,13.68z"/>
	<path class="st0" d="M6.8,25.08c-0.65-1-0.68-7.59-0.05-10.19C7.28,16.46,7.6,24.34,6.8,25.08z"/>
	<path class="st0" d="M3.4,25.23c-0.36-2.64-0.36-5.32,0-7.96C4.02,18.2,4.07,24.07,3.4,25.23z"/>
	<path class="st0" d="M4.91,25.01v-7.32c0.74,1.09,0.8,6.35,0.25,7.35L4.91,25.01z"/>
	<path class="st0" d="M1.86,24.49c-0.47-2.3-0.48-4.67-0.01-6.98C2.34,19.81,2.35,22.19,1.86,24.49z"/>
	<path class="st0" d="M0,23.06v-4.24h0.25c0.44,1.38,0.45,2.86,0.03,4.24H0z"/>
</g>
</svg>
