<?xml version="1.0" encoding="utf-8"?>
<!-- Generator: Adobe Illustrator 23.0.1, SVG Export Plug-In . SVG Version: 6.00 Build 0)  -->
<svg version="1.1" id="Слой_1" xmlns="http://www.w3.org/2000/svg" xmlns:xlink="http://www.w3.org/1999/xlink" x="0px" y="0px"
	 viewBox="0 0 35 35" style="enable-background:new 0 0 35 35;" xml:space="preserve">
<style type="text/css">
	.st0{fill:#01FFFF;}
</style>
<path class="st0" d="M17.4,34.5C8,34.5,0.5,26.9,0.5,17.4C0.5,8,8.1,0.5,17.6,0.5c9.4,0,16.9,7.7,16.9,17.1
	C34.5,27,26.9,34.5,17.4,34.5z M14.7,9.3c-0.5,0-1.4-0.1-2.2,0C10.7,9.6,8.8,9.9,7,10.3c-1,0.2-1.7,1-1.4,2.1c0.2,1,1.1,1.5,2.3,1.2
	c0.2,0,0.4-0.1,0.5-0.1c4-1,8-1.1,12-0.2c2.3,0.5,4.6,1.4,6.8,2.2c1.3,0.5,2.2,0.4,2.7-0.6c0.5-1,0.2-1.9-1.1-2.5
	c-0.8-0.4-1.5-0.8-2.3-1.1C22.9,9.9,19.1,9.2,14.7,9.3z M13.7,15.1c-1.3,0.2-3.5,0.5-5.6,1c-1,0.2-1.8,0.8-1.4,1.9
	c0.3,1,1.1,1.2,2.2,1c1.2-0.3,2.5-0.5,3.7-0.6c4.5-0.3,8.8,0.4,12.8,2.6c1,0.6,2.1,0.2,2.3-0.8c0.3-1-0.4-1.5-1.1-1.9
	C22.9,16.1,18.8,15.3,13.7,15.1z M14.8,20.6c-1.9,0.3-3.9,0.5-5.8,0.8c-0.8,0.1-1.7,0.4-1.5,1.5c0.2,1,1,1.1,1.9,0.9
	c4.8-1,9.5-1,13.9,1.4c0.8,0.4,1.7,0.8,2.2-0.3c0.5-1-0.3-1.5-1.1-1.9C21.4,21.5,18.2,20.7,14.8,20.6z"/>
</svg>
