<svg xmlns="http://www.w3.org/2000/svg" viewBox="0 0 35 35"><path fill="#01ffff" d="M17.4 34.5C8 34.5.5 26.9.5 17.4.5 8 8.1.5 17.6.5c9.4 0 16.9 7.7 16.9 17.1 0 9.4-7.6 16.9-17.1 16.9zM14.7 9.3c-.5 0-1.4-.1-2.2 0-1.8.3-3.7.6-5.5 1-1 .2-1.7 1-1.4 2.1.2 1 1.1 1.5 2.3 1.2.2 0 .4-.1.5-.1 4-1 8-1.1 12-.2 2.3.5 4.6 1.4 6.8 2.2 1.3.5 2.2.4 2.7-.6s.2-1.9-1.1-2.5c-.8-.4-1.5-.8-2.3-1.1-3.6-1.4-7.4-2.1-11.8-2zm-1 5.8c-1.3.2-3.5.5-5.6 1-1 .2-1.8.8-1.4 1.9.3 1 1.1 1.2 2.2 1 1.2-.3 2.5-.5 3.7-.6 4.5-.3 8.8.4 12.8 2.6 1 .6 2.1.2 2.3-.8.3-1-.4-1.5-1.1-1.9-3.7-2.2-7.8-3-12.9-3.2zm1.1 5.5c-1.9.3-3.9.5-5.8.8-.8.1-1.7.4-1.5 1.5.2 1 1 1.1 1.9.9 4.8-1 9.5-1 13.9 1.4.8.4 1.7.8 2.2-.3.5-1-.3-1.5-1.1-1.9-3-1.5-6.2-2.3-9.6-2.4z"/></svg>