<?xml version="1.0" encoding="utf-8"?>
<!-- Generator: Adobe Illustrator 23.0.1, SVG Export Plug-In . SVG Version: 6.00 Build 0)  -->
<svg version="1.1" id="Слой_1" xmlns="http://www.w3.org/2000/svg" xmlns:xlink="http://www.w3.org/1999/xlink" x="0px" y="0px"
	 viewBox="0 0 35 35" style="enable-background:new 0 0 35 35;" xml:space="preserve">
<style type="text/css">
	.st0{fill:#01FFFF;}
</style>
<path class="st0" d="M13.2,30.4c0-0.1,0-0.3,0-0.4c0.2-2.5,0.3-5,0.5-7.4c0-0.2,0.2-0.5,0.4-0.6c4.7-4.3,9.5-8.5,14.2-12.8
	c0.2-0.2,0.3-0.3,0.5-0.5c0.1-0.1,0.1-0.3,0.1-0.3c-0.1-0.1-0.2-0.2-0.3-0.2c-0.4,0.1-0.8,0.2-1.1,0.4c-3,1.9-6.1,3.8-9.1,5.7
	c-2.9,1.8-5.8,3.7-8.7,5.5c-0.3,0.2-0.5,0.2-0.8,0.1c-2.5-0.8-5-1.6-7.5-2.4c-0.3-0.1-0.6-0.2-0.8-0.4c-0.5-0.3-0.6-0.9-0.1-1.3
	c0.4-0.4,0.9-0.7,1.5-0.9C4,14,6.3,13.2,8.5,12.3c8-3.1,16-6.2,24-9.3c1.5-0.6,2.6,0.2,2.4,1.8c-0.2,1.3-0.5,2.6-0.7,3.8
	c-1.5,7.2-3.1,14.5-4.6,21.7c-0.4,1.9-1.6,2.3-3.2,1.2c-2.4-1.8-4.9-3.6-7.3-5.4c-0.1-0.1-0.3-0.2-0.5-0.3c-0.6,0.6-1.2,1.1-1.8,1.7
	c-0.8,0.7-1.5,1.5-2.3,2.2C14.2,30.1,13.8,30.4,13.2,30.4z"/>
</svg>
