<svg xmlns="http://www.w3.org/2000/svg" viewBox="0 0 35 35"><path fill="#01ffff" fill-rule="evenodd" d="M22.9-.08H12.1C2.26-.08-.08 2.26-.08 12.1v10.8c0 9.87 2.33 12.18 12.18 12.18h10.8c9.87 0 12.18-2.32 12.18-12.18V12.1c0-9.84-2.36-12.18-12.18-12.18zM28.3 25h-2.55c-.97 0-1.27-.77-3-2.53-1.53-1.46-2.19-1.66-2.56-1.66-.52 0-.67.15-.67.87v2.31c0 .62-.2.99-1.84.99-2.7 0-5.71-1.64-7.82-4.69-3.18-4.47-4.05-7.82-4.05-8.51 0-.37.15-.72.87-.72h2.55c.64 0 .89.3 1.14.99 1.27 3.65 3.37 6.85 4.24 6.85.32 0 .47-.15.47-.97v-3.79c-.1-1.74-1.02-1.89-1.02-2.51.01-.34.29-.61.63-.6H18.72c.54 0 .74.3.74.94v5.1c0 .55.25.74.4.74.32 0 .6-.2 1.19-.79 1.84-2.06 3.15-5.23 3.15-5.23.18-.46.63-.75 1.12-.72h2.57c.77 0 .94.4.77.95-.32 1.49-3.45 5.9-3.45 5.9-.27.45-.37.64 0 1.14.27.37 1.17 1.14 1.76 1.84 1.09 1.24 1.94 2.28 2.16 3 .26.74-.09 1.1-.83 1.1z" clip-rule="evenodd"/></svg>