<?xml version="1.0" encoding="utf-8"?>
<!-- Generator: Adobe Illustrator 23.0.1, SVG Export Plug-In . SVG Version: 6.00 Build 0)  -->
<svg version="1.1" id="Слой_1" xmlns="http://www.w3.org/2000/svg" xmlns:xlink="http://www.w3.org/1999/xlink" x="0px" y="0px"
	 viewBox="0 0 35 35" style="enable-background:new 0 0 35 35;" xml:space="preserve">
<style type="text/css">
	.st0{fill-rule:evenodd;clip-rule:evenodd;fill:#01FFFF;}
</style>
<path class="st0" d="M33.6,27.9h-3.8c-1.5,0-1.9-1.2-4.5-3.8c-2.3-2.2-3.3-2.5-3.8-2.5c-0.8,0-1,0.2-1,1.3v3.5
	c0,0.9-0.3,1.5-2.8,1.5c-4,0-8.5-2.5-11.7-7C1.3,14.2,0,9.2,0,8.2c0-0.6,0.2-1.1,1.3-1.1h3.8c1,0,1.3,0.4,1.7,1.5
	c1.9,5.5,5,10.2,6.3,10.2c0.5,0,0.7-0.2,0.7-1.5v-5.7c-0.1-2.6-1.5-2.8-1.5-3.8c0-0.5,0.4-0.9,0.9-0.9h6c0.8,0,1.1,0.4,1.1,1.4v7.6
	c0,0.8,0.4,1.1,0.6,1.1c0.5,0,0.9-0.3,1.8-1.2c2.8-3.1,4.7-7.8,4.7-7.8c0.3-0.7,0.9-1.1,1.7-1.1H33c1.2,0,1.4,0.6,1.2,1.4
	c-0.5,2.2-5.2,8.8-5.2,8.8c-0.4,0.7-0.6,1,0,1.7c0.4,0.6,1.7,1.7,2.6,2.8c1.6,1.9,2.9,3.4,3.2,4.5C35.3,27.4,34.7,27.9,33.6,27.9z"
	/>
</svg>
