<?xml version="1.0" encoding="utf-8"?>
<!-- Generator: Adobe Illustrator 23.0.1, SVG Export Plug-In . SVG Version: 6.00 Build 0)  -->
<svg version="1.1" id="Слой_1" xmlns="http://www.w3.org/2000/svg" xmlns:xlink="http://www.w3.org/1999/xlink" x="0px" y="0px"
	 viewBox="0 0 35 35" style="enable-background:new 0 0 35 35;" xml:space="preserve">
<style type="text/css">
	.st0{fill:#01FFFF;}
</style>
<path class="st0" d="M0.5,34.6c0.1-0.2,0.1-0.3,0.1-0.5c0.7-2.7,1.5-5.3,2.2-8c0.1-0.2,0-0.5-0.1-0.7C-0.6,19.3,0,12,4.4,6.6
	c4.1-4.9,9.4-6.9,15.7-6.1c4.1,0.6,7.5,2.5,10.2,5.6c5.3,6.1,5.6,15.1,0.6,21.6c-4.9,6.3-13.8,8.4-20.9,4.8
	c-0.5-0.2-0.8-0.3-1.3-0.1c-2.6,0.7-5.2,1.4-7.8,2.1C0.8,34.5,0.7,34.6,0.5,34.6z M12.1,9.5c-0.8-0.2-1.4,0.2-1.9,0.8
	c-1.3,1.5-1.5,3.1-1,5c0.3,1.1,1,2.1,1.7,3.1c2.3,3.3,5.3,5.7,9.2,6.9c1.6,0.5,3.2,0.4,4.6-0.6c1-0.7,1.3-1.7,1.3-2.9
	c0-0.2-0.2-0.5-0.3-0.6c-1.1-0.6-2.3-1.1-3.4-1.6c-0.5-0.2-0.7-0.1-1,0.3c-0.4,0.5-0.8,1-1.2,1.5c-0.2,0.3-0.5,0.4-0.9,0.2
	c-2.5-1-4.5-2.7-5.9-5c-0.2-0.3-0.2-0.6,0.1-0.9c0.3-0.3,0.6-0.7,0.8-1c0.4-0.5,0.4-0.9,0.2-1.5c-0.4-0.9-0.8-1.8-1.1-2.7
	C13.2,9.8,12.8,9.3,12.1,9.5z"/>
</svg>
