<svg xmlns="http://www.w3.org/2000/svg" viewBox="0 0 35 35"><path fill="#01ffff" d="M.5 34.6c.1-.2.1-.3.1-.5.7-2.7 1.5-5.3 2.2-8 .1-.2 0-.5-.1-.7C-.6 19.3 0 12 4.4 6.6 8.5 1.7 13.8-.3 20.1.5c4.1.6 7.5 2.5 10.2 5.6 5.3 6.1 5.6 15.1.6 21.6C26 34 17.1 36.1 10 32.5c-.5-.2-.8-.3-1.3-.1L.9 34.5c-.1 0-.2.1-.4.1zM12.1 9.5c-.8-.2-1.4.2-1.9.8-1.3 1.5-1.5 3.1-1 5 .3 1.1 1 2.1 1.7 3.1 2.3 3.3 5.3 5.7 9.2 6.9 1.6.5 3.2.4 4.6-.6 1-.7 1.3-1.7 1.3-2.9 0-.2-.2-.5-.3-.6-1.1-.6-2.3-1.1-3.4-1.6-.5-.2-.7-.1-1 .3l-1.2 1.5c-.2.3-.5.4-.9.2-2.5-1-4.5-2.7-5.9-5-.2-.3-.2-.6.1-.9.3-.3.6-.7.8-1 .4-.5.4-.9.2-1.5-.4-.9-.8-1.8-1.1-2.7-.1-.7-.5-1.2-1.2-1z"/></svg>