<?xml version="1.0" encoding="utf-8"?>
<!-- Generator: Adobe Illustrator 23.0.1, SVG Export Plug-In . SVG Version: 6.00 Build 0)  -->
<svg version="1.1" id="Слой_1" xmlns="http://www.w3.org/2000/svg" xmlns:xlink="http://www.w3.org/1999/xlink" x="0px" y="0px"
	 viewBox="0 0 35 35" style="enable-background:new 0 0 35 35;" xml:space="preserve">
<style type="text/css">
	.st0{fill:#01FFFF;}
</style>
<path class="st0" d="M17.47,30.13c-3.23-0.1-6.46-0.18-9.68-0.33c-1.2-0.05-2.4-0.18-3.59-0.39c-1.99-0.37-3.24-1.74-3.63-3.85
	c-0.34-2.12-0.53-4.27-0.55-6.41c-0.07-2.4,0.02-4.8,0.26-7.18c0.07-0.84,0.2-1.68,0.39-2.5c0.46-2.01,1.92-3.29,4.08-3.49
	c2.52-0.22,5.05-0.4,7.58-0.47c3.14-0.08,6.29-0.1,9.43-0.03c2.77,0.07,5.53,0.28,8.29,0.48c2.37,0.17,4.11,1.58,4.42,4.39
	c0.22,1.99,0.37,3.98,0.48,5.98c0.1,2.4,0.01,4.81-0.26,7.2c-0.07,0.84-0.19,1.68-0.37,2.5c-0.46,2.01-1.92,3.29-4.08,3.49
	c-2.54,0.22-5.08,0.37-7.62,0.48c-1.71,0.07-3.43,0-5.14,0L17.47,30.13z M13.93,12.51v10.46l9.19-5.23L13.93,12.51z"/>
</svg>
