<svg xmlns="http://www.w3.org/2000/svg" viewBox="0 0 35 35"><path fill="#01ffff" d="M17.47 30.13c-3.23-.1-6.46-.18-9.68-.33-1.2-.05-2.4-.18-3.59-.39-1.99-.37-3.24-1.74-3.63-3.85-.34-2.12-.53-4.27-.55-6.41-.07-2.4.02-4.8.26-7.18.07-.84.2-1.68.39-2.5.46-2.01 1.92-3.29 4.08-3.49 2.52-.22 5.05-.4 7.58-.47 3.14-.08 6.29-.1 9.43-.03 2.77.07 5.53.28 8.29.48 2.37.17 4.11 1.58 4.42 4.39.22 1.99.37 3.98.48 5.98.1 2.4.01 4.81-.26 7.2-.07.84-.19 1.68-.37 2.5-.46 2.01-1.92 3.29-4.08 3.49-2.54.22-5.08.37-7.62.48-1.71.07-3.43 0-5.14 0l-.01.13zm-3.54-17.62v10.46l9.19-5.23-9.19-5.23z"/></svg>