<?xml version="1.0" encoding="utf-8"?>
<!-- Generator: Adobe Illustrator 23.0.1, SVG Export Plug-In . SVG Version: 6.00 Build 0)  -->
<svg version="1.1" id="Слой_1" xmlns="http://www.w3.org/2000/svg" xmlns:xlink="http://www.w3.org/1999/xlink" x="0px" y="0px"
	 viewBox="0 0 400 300" style="enable-background:new 0 0 400 300;" xml:space="preserve">
<style type="text/css">
	.st0{fill:#01FFFF;}
</style>
<g>
	<path class="st0" d="M61.4,102.9h55.3v27.2H4.1v-19.2h56.9C61.2,108.1,61.3,105.6,61.4,102.9z"/>
	<path d="M61.5,236.6h55.2V264H4.2v-19H61C61.2,242.1,61.3,239.5,61.5,236.6z"/>
	<path d="M4.2,136.4h112.4v27.3H61.5c-0.2-2.5-0.3-5-0.5-7.8H4.2V136.4z"/>
	<polygon points="4.2,36 116.8,36 116.8,63.2 61.3,63.2 61.3,53.3 4.2,53.3 	"/>
	<path d="M61.5,69.5h55.3v27.3H61.5c-0.1-2.5-0.2-4.9-0.3-7.7h-57V75.3H61C61.2,73.1,61.3,71.4,61.5,69.5z"/>
	<path d="M61.5,203.2h55.2v27.2H61.5c-0.2-2.3-0.3-4.8-0.5-7.6H4.2v-11.5h56.9C61.2,208.4,61.3,205.9,61.5,203.2z"/>
	<path d="M61.5,169.8h55.3V197H61.5c-0.1-2.4-0.3-4.8-0.4-7.5H4.3V178h4.1c15.8,0,31.6,0,47.3,0c6.3,0,5.5,0.1,5.5-5.2
		C61.3,171.9,61.4,171,61.5,169.8z"/>
	<rect x="133.9" y="69.2" width="61.3" height="27.9"/>
	<rect x="200.8" y="49.3" width="61.3" height="27.9"/>
	<rect x="269.3" y="97.1" class="st0" width="61.3" height="27.9"/>
	<rect x="334.6" y="131.3" width="61.3" height="27.9"/>
</g>
</svg>
