<?xml version="1.0" encoding="utf-8"?>
<!-- Generator: Adobe Illustrator 23.0.1, SVG Export Plug-In . SVG Version: 6.00 Build 0)  -->
<svg version="1.1" id="Слой_1" xmlns="http://www.w3.org/2000/svg" xmlns:xlink="http://www.w3.org/1999/xlink" x="0px" y="0px"
	 viewBox="0 0 400 300" style="enable-background:new 0 0 400 300;" xml:space="preserve">
<style type="text/css">
	.st0{fill:#01FFFF;}
</style>
<g>
	<polygon points="80.1,94.1 80.1,120.2 79.1,120.2 79.1,120.1 27.9,120.1 27.9,94.1 40.5,94.1 40.5,13.4 66.7,13.4 66.7,94.1 	"/>
	<rect x="40.5" y="120.1" width="26.1" height="0.1"/>
	<rect x="40.5" y="146.2" width="26.1" height="140.3"/>
	<polygon class="st0" points="152.1,201.1 152.1,227.2 99.9,227.2 99.9,201.1 113.5,201.1 113.5,13.4 139.7,13.4 139.7,201.1 	"/>
	<rect x="113.5" y="253.2" width="26.1" height="33.3"/>
	<polygon points="226.1,48.1 226.1,74.1 173.9,74.1 173.9,48.1 186.5,48.1 186.5,13.4 212.7,13.4 212.7,48.1 	"/>
	<rect x="186.5" y="74.1" width="26.1" height="0.1"/>
	<rect x="186.5" y="100.2" width="26.1" height="186.3"/>
	<polygon points="298.1,150.1 298.1,176.1 245.9,176.1 245.9,150.1 259.5,150.1 259.5,13.4 285.7,13.4 285.7,150.1 	"/>
	<rect x="259.5" y="176.1" width="26.1" height="0.1"/>
	<rect x="259.5" y="202.2" width="26.1" height="84.3"/>
	<polygon points="372.1,82.1 372.1,107.1 319.9,107.1 319.9,82.1 332.5,82.1 332.5,13.4 358.7,13.4 358.7,82.1 	"/>
	<rect x="332.5" y="133.2" width="26.1" height="153.3"/>
	<rect x="27.9" y="120.1" width="51.1" height="0.1"/>
	<rect x="173.9" y="74.1" width="52.1" height="0.1"/>
	<rect x="245.9" y="176.1" width="52.1" height="0.1"/>
	<rect x="245.9" y="176.1" width="52.1" height="0.1"/>
	<rect x="173.9" y="74.1" width="52.1" height="0.1"/>
	<rect x="27.9" y="120.1" width="51.1" height="0.1"/>
</g>
</svg>
