<?xml version="1.0" encoding="utf-8"?>
<!-- Generator: Adobe Illustrator 23.0.1, SVG Export Plug-In . SVG Version: 6.00 Build 0)  -->
<svg version="1.1" id="Слой_1" xmlns="http://www.w3.org/2000/svg" xmlns:xlink="http://www.w3.org/1999/xlink" x="0px" y="0px"
	 viewBox="0 0 344.2 300" style="enable-background:new 0 0 344.2 300;" xml:space="preserve">
<style type="text/css">
	.st0{fill:#01FFFF;}
</style>
<g>
	<polygon points="52.2,72.4 52.2,98.5 51.2,98.5 51.2,98.4 0,98.4 0,72.4 12.6,72.4 12.8,35.1 39,35.1 38.8,72.4 	"/>
	<rect x="12.6" y="98.4" width="26.1" height="0.1"/>
	<rect x="12.6" y="124.5" width="26.1" height="140.3"/>
	<polygon class="st0" points="124.2,179.5 124.2,205.6 72,205.6 72,179.5 85.6,179.5 85.8,35.1 112,35.1 111.8,179.5 	"/>
	<rect x="85.6" y="231.6" width="26.1" height="33.3"/>
	<polygon points="198.2,72.4 198.2,98.4 146,98.4 146,72.4 158.6,72.4 158.6,37.8 184.8,37.8 184.8,72.4 	"/>
	<rect x="158.6" y="52.5" width="26.1" height="0.1"/>
	<rect x="158.6" y="128.4" width="26.1" height="136.5"/>
	<polygon points="270.2,128.5 270.2,154.5 218,154.5 218,128.5 231.6,128.5 231.8,35.1 258,35.1 257.8,128.5 	"/>
	<rect x="231.6" y="154.5" width="26.1" height="0.1"/>
	<rect x="231.6" y="180.6" width="26.1" height="84.3"/>
	<polygon points="343.8,80.4 343.8,105.4 291.5,105.4 291.5,80.4 304.1,80.4 304.5,35.1 330.8,35.1 330.4,80.4 	"/>
	<rect x="304.6" y="128.4" width="26.1" height="136.5"/>
	<rect y="98.4" width="51.1" height="0.1"/>
	<rect x="218" y="154.5" width="52.1" height="0.1"/>
	<rect x="218" y="154.5" width="52.1" height="0.1"/>
	<rect y="98.4" width="51.1" height="0.1"/>
</g>
</svg>
