<svg xmlns="http://www.w3.org/2000/svg" id="Слой_1" x="0" y="0" version="1.1" viewBox="0 0 400 300" xml:space="preserve"><style>.st0{fill:#fff}.st1{fill:#1c1b1b}.st2{fill:#00d0d0}</style><path d="M373.6 231.1c-7-10.3-13.4-19.7-20.1-29.4.2-2.8.6-6.2.6-9.5V61c0-10.9-2.4-14.2-11.4-15.7C276.9 34.4 195.4 21 91.7 4.1c-17.9-3-23.4.7-23.4 15.8 0 65.1 0 130.2.1 195.3 0 4.6.9 9.2 1.3 12.7-15 17.2-30.1 34.5-47.4 54.5l351.3-51.3zm-101.3 6.6c-.2.2-.4.5-.6.7l-.2.2-.3.3-.3.3-.3.3c-.1.1-.2.2-.3.2-.2.1-.3.2-.5.3-.2.1-.4.2-.7.2-10 1.8-20.4 3-31.1 4.4-10.5 1.5-21.3 3.1-32.4 4.3-.4 0-.9 0-1.3-.1-.5-.1-1-.3-1.5-.5-.1-.1-.3-.1-.4-.2l-.6-.3c-.3-.2-.6-.3-.9-.5-.4-.3-.8-.5-1.3-.7-.3-.1-.6-.3-.9-.4.3-.3.6-.5.9-.8.4-.4.8-.9 1.3-1.4l.9-.9.4-.4.4-.4c.1-.1.3-.2.4-.4.1-.1.3-.2.4-.3.2-.1.3-.3.5-.4.1-.1.2-.1.2-.2.1-.1.2-.2.4-.2.1-.1.3-.1.4-.2.3-.1.6-.2.8-.3 22.4-3.1 43.5-5.8 63.4-8h.7c1.5.3 3.1 2.3 4.6 3.4-.7.6-1.4 1.3-2.1 2zm-180.7 9.2c4.8-10.9 11.6-16.2 23.4-17.9.4-.1.8-.1 1.2-.2.4 0 .9-.1 1.4-.2 84.6-7.9 153.8-14.7 211.3-20.8.3 0 .6-.1.8-.1h2.9c.3 0 .5.1.8.1.2 0 .4.1.6.1.2 0 .4.1.6.2.1 0 .2.1.3.1.3.1.7.2 1 .4.1.1.3.1.4.2.2.1.5.2.7.4.4.3.8.5 1.2.9l.3.3c.1.1.3.2.4.4l.6.6c1.1 1.3 2.1 3 3 5.1.2.3.3.7.4 1.1L91.6 246.9zM84 23.9l262.6 36.7v130L84 209.7V23.9z" class="st0"/><path d="M274.3 235.7l-2 2c-.2.2-.4.5-.6.7l-.2.2-.3.3-.3.3-.3.3c-.1.1-.2.2-.3.2-.2.1-.3.2-.5.3-.2.1-.4.2-.7.2-10 1.8-20.4 3-31.1 4.4-10.5 1.5-21.3 3.1-32.4 4.3-.4 0-.9 0-1.3-.1-.5-.1-1-.3-1.5-.5-.1-.1-.3-.1-.4-.2l-.6-.3c-.3-.2-.6-.3-.9-.5-.4-.3-.8-.5-1.3-.7-.3-.1-.6-.3-.9-.4.3-.3.6-.5.9-.8.4-.4.8-.9 1.3-1.4l.9-.9.4-.4.4-.4c.1-.1.3-.2.4-.4.1-.1.3-.2.4-.3.1-.1.2-.2.4-.3.1-.1.3-.2.4-.3.1-.1.2-.2.4-.2.1-.1.3-.1.4-.2.3-.1.6-.2.8-.3 22.4-3.1 43.5-5.8 63.4-8h.7c1.4.4 2.9 2.4 4.4 3.4zM342.9 217.6L91.6 246.9c4.8-10.9 11.6-16.2 23.4-17.9.4-.1.8-.1 1.2-.2.4 0 .9-.1 1.4-.2 84.6-7.9 153.8-14.7 211.3-20.8.3 0 .6-.1.8-.1h2c.3 0 .6 0 .8.1h.1c.3 0 .5.1.8.1.2 0 .4.1.6.1.2 0 .4.1.6.2.1 0 .2.1.3.1.3.1.7.2 1 .4.1.1.3.1.4.2.2.1.5.2.7.4.4.3.8.5 1.2.9l.3.3c.1.1.3.2.4.4l.6.6c1.1 1.3 2.1 3 3 5.1.1.3.3.6.4 1zM84 23.9v185.8l262.6-19.2V60.6z" class="st1"/><path d="M26 286.5c154.1-23.3 263.3-39.7 346.1-52.2-2.2 5.5-5.4 7.4-9.6 8-27.9 4.4-58.6 9.5-92.5 14.9-60 9.7-131.5 21.2-218 35.4-10.1 1.6-18.3 1.1-26-6.1z" class="st0"/><g><path d="M176.4 130.5V82.8l-16.6-1.4-36.4 50.9.9 9.8 35.7.2v16.9l16.5-.3v-16.5h8.9v-11.7l-9-.2zm-16.5-.3l-20.2-.4 18.1-24.5 1.7-3.4.3.1v28.2zM304.6 133.1V93.3l-11.6-1-24.9 42.3.6 8 24.4.1v14l11.4-.2v-13.8h6.2V133l-6.1.1zm-11.4-.3l-13.9-.3 12.4-20.4 1.2-2.8h.2v23.5zM228.5 86.6c-19.8-1.6-36.7 13.7-36.7 34.3 0 20.6 16.9 37 36.7 36.7 18.8-.3 33.3-15.7 33.3-34.4s-14.5-35-33.3-36.6zm0 61.5c-14.4 0-26.5-12-26.5-26.8s12.1-26.1 26.5-25.1c13.8 1 24.7 12.9 24.7 26.8s-10.9 25-24.7 25.1z" class="st2"/><path d="M241.7 129l-.3 1.2c-.1.4-.2.7-.3 1-.1.3-.2.5-.2.5-.6 1.5-1.4 2.6-2.3 3.5-.9.9-1.9 1.6-3 2-1.1.5-2.2.8-3.3.9-1.1.1-2.2.2-3.2.2h-.5c-.2 0-.7 0-1.5-.1-.2 0-.5-.1-.9-.1-.3 0-.7-.1-1-.1-.2 0-.5-.1-.8-.1-.3 0-.6-.1-.8-.1-.2-.1-.4-.1-.7-.2-.2-.1-.5-.1-.7-.2-.4-.1-.9-.3-1.4-.5-.5-.3-1-.6-1.6-.9-.2-.1-.5-.4-.9-.7-.4-.4-.7-.8-1.1-1.2-.4-.4-.7-.8-.9-1.1-.3-.4-.4-.6-.4-.8v-7.7c0-.2 0-.5-.1-.8 0-.3-.1-.6-.1-.9 0-.3-.1-.5-.1-.8 0-.2-.1-.3-.1-.4-.1 0-.3 0-.5-.1h-.5c.1 0 .3-.1.5-.1s.3 0 .5-.1c-.2-.1-.3-.1-.5-.1s-.3 0-.5.1V117l1.8.1c.1 0 .2.1.3.2.1.1.2.2.3.2l5.4.2v-.8l-7.7-.3V114l7.6.3.1-.1v-.2-.2l-.1-.1-7.6-.3v-5.5l9 .5v4.6l.1-.1v5l1.8.1v.5l-1.7-.1v2c-.1 0-.1 0-.2.1v2.4l6.8.2v.5l-6.8-.2v3c0 .8.1 1.4.4 2 .3.6.6 1.1 1.1 1.5.5.4 1 .7 1.6 1 .6.2 1.2.3 1.9.4.4 0 .9 0 1.3-.1.5-.1.9-.2 1.3-.5.4-.2.8-.5 1.1-.9.3-.4.6-.9.8-1.4 0-.1.1-.3.2-.5s.1-.4.1-.5v-8.6l5.8.2c.2-.2.4-.3.6-.5.2-.2.5-.3.7-.5l1.4.1v9.6c-.1.6-.1.9-.2 1.3zm-19.3-10.8h-.1v.4h.1v-.4zm3.2 11.7v-.4h.9v.4h-.9zm.7-10.9c0 .1-.1.2-.1.3v.7c0 .4 0 .7-.1 1.1 0 .4-.1.8-.1 1.3 0-.6 0-1.2-.1-1.7v-.5-.9-.9c0-.3 0-.4.1-.4v.3c0 .1.1.2.3.3v.4c.2-.1.1-.1 0 0zm.4 10.9v-.4h1.2v.4h-1.2zm2.5-10.9v-.4h.9v.4h-.9zm4.1-4.4v-5.3l8.5.4v5.3l-8.5-.4zm8.3 3.3c-.1.1-.2.1-.2.1l-8.1-.3v-2.6l8.5.4v2.3s-.1.1-.2.1z" class="st2"/></g></svg>