<svg xmlns="http://www.w3.org/2000/svg" id="Слой_1" x="0" y="0" version="1.1" viewBox="0 0 150 150" xml:space="preserve"><style>.st0{fill:#10ffff}</style><path d="M75 150c41.4 0 75-33.6 75-75 0-17-5.7-32.8-15.3-45.4l-9.6 9.6c7.2 10.1 11.5 22.5 11.5 35.8 0 33.9-27.6 61.6-61.6 61.6-33.9 0-61.6-27.6-61.6-61.6C13.4 41.1 41 13.4 75 13.4c13.3 0 25.7 4.3 35.8 11.5l9.6-9.6C107.8 5.7 92 0 75 0 33.6 0 0 33.6 0 75s33.6 75 75 75z" class="st0"/><path d="M68.3 31.6h13.5v86.8H68.3z" class="st0" transform="rotate(-134.999 75 75)"/><path d="M68.3 31.6h13.5v86.8H68.3z" class="st0" transform="rotate(-45.001 75 75.001)"/></svg>