<svg xmlns="http://www.w3.org/2000/svg" id="Слой_1" x="0" y="0" version="1.1" viewBox="0 0 35 35" xml:space="preserve"><style>.st0{fill:#01ffff}</style><path d="M17.5 35.01H9.9a9.41 9.41 0 0 1-6.05-2.17 9.496 9.496 0 0 1-3.37-4.96c-.27-.93-.42-1.9-.45-2.87-.04-4.84 0-9.68-.03-14.52-.07-2.46.75-4.87 2.3-6.77A9.575 9.575 0 0 1 7.88.31C8.74.13 9.62.03 10.5.02c4.63-.03 9.26-.03 13.89 0 1.46-.04 2.91.22 4.26.75 1.5.61 2.83 1.56 3.9 2.78 1.17 1.38 1.97 3.03 2.31 4.81.1.38.14.78.14 1.18 0 5.03-.02 10.07 0 15.11.07 2.24-.61 4.43-1.92 6.25a9.653 9.653 0 0 1-6.03 3.91c-.64.13-1.3.19-1.95.2-2.54.01-5.07 0-7.6 0zm.06-3.23c2.44 0 4.88-.03 7.31 0 1.28.05 2.55-.29 3.65-.96 1.99-1.25 3.12-3.05 3.15-5.38.06-5.24.03-10.49 0-15.74a5.965 5.965 0 0 0-1.54-3.87c-1.45-1.69-3.33-2.42-5.54-2.41h-9.21c-2.04 0-4.08.02-6.12.1-1.47.09-2.86.73-3.88 1.79a6.575 6.575 0 0 0-2.06 4.85v14.62c0 .36.06.72.09 1.09.13 1.68.94 3.23 2.24 4.3a6.213 6.213 0 0 0 4.2 1.61c2.57 0 5.14.01 7.7.01h.01z" class="st0"/><path d="M17.5 26.72a8.984 8.984 0 0 1-9.1-8.88v-.23c-.06-4.97 3.93-9.04 8.9-9.1h.23c4.79-.04 9.32 3.75 9.09 9.64-.18 4.46-4.06 8.69-9.12 8.57zm5.79-9.04c.14-3.26-2.71-5.85-5.71-5.86a5.82 5.82 0 0 0-5.86 5.78 5.82 5.82 0 0 0 5.78 5.86 5.75 5.75 0 0 0 5.79-5.71v-.07zM24.76 8.25c-.08-1.13.76-2.11 1.89-2.19.06 0 .13-.01.19-.01 1.17-.04 2.16.88 2.21 2.05v.17c.03 1.17-.9 2.14-2.07 2.17h-.1c-1.12.05-2.07-.81-2.12-1.93a1.13 1.13 0 0 1 0-.26z" class="st0"/></svg>