<svg xmlns="http://www.w3.org/2000/svg" id="Слой_1" x="0" y="0" version="1.1" viewBox="0 0 88.5 14.9" xml:space="preserve"><style>.st0{fill:#fff}.st1{fill:#01ffff}</style><path d="M13.5 10.2c0 .2-.1.4-.1.6-.1.2-.1.4-.2.5-.1.1-.1.2-.1.3-.3.7-.7 1.3-1.2 1.8-.5.4-1 .8-1.5 1s-1.1.4-1.7.5c-.6.1-1.1.1-1.6.1H4.8c-.1 0-.3 0-.4-.1-.1 0-.2 0-.3-.1-.1 0-.2 0-.3-.1-.2 0-.4-.1-.7-.3-.2-.1-.5-.3-.8-.4l-.4-.4c-.2-.2-.4-.4-.5-.6-.2-.2-.3-.4-.5-.5-.1-.2-.2-.3-.2-.4V8.4 8c0-.2 0-.3-.1-.4 0-.1 0-.3-.1-.4 0-.1 0-.2-.1-.2H0h.4-.2C.1 7 .1 6.9 0 7V4.9h.9s.1 0 .1.1.1.1.1.1h2.6v-.4H0V3.4h3.7v-.1-.1H0V.5h4.3v2.2s0 .1 0 0 0 0 .1 0v2.4h.9v.2h-.8v1s-.1 0-.1.1v1.2h3.4v.3H4.4v1.5c0 .4.1.7.2 1s.3.5.5.7c.2.2.5.3.8.5.3.1.6.2.9.2.2 0 .4 0 .7-.1.2 0 .4-.1.6-.2s.4-.3.5-.5.3-.4.4-.7c0 0 .1-.1.1-.3 0-.1.1-.2.1-.2V5.4h3l.3-.3c.1-.1.2-.2.4-.3h.7v4.8c-.1.2-.1.4-.1.6zM3.8 5.1l-.1.2h.1v-.2zm1.5 5.7v-.2h.4v.2h-.4zm.4-5.3v1.6c0-.3 0-.6-.1-.8v-.2-.5-.4V5v.1s.1.1.2.1v.2s-.1 0-.1.1zm.2 5.3v-.2h.6v.2h-.6zm1.2-5.4v-.2h.5v.2h-.5zm2.1-2.2V.5h4.3v2.6H9.2zm4.2 1.4H9.2V3.4h4.3v1.2h-.1zM31.4 10.6c0 .2-.1.5-.2.7h-.4v3.1h-4.1l-3.1-4.6h-1.2l.1-1.3h.2l-1.2-1.8v7.7h-3.2v-.8s0-.1.1-.3c.1-.2.1-.4.2-.5v-.4-.3-.5c0-.2 0-.4-.1-.5 0 0 0-.1-.1-.2 0-.1 0-.1-.1-.2-.1 0-.1.1-.1.3 0 .1 0 .3-.1.4v3.2h-.7v-3c-.1-.1-.2-.1-.3-.2-.1-.1-.2-.1-.3-.2 0 0 .1 0 .2-.1s.2-.1.2-.1c.1 0 .1 0 .1.1V11c-.1 0-.1-.1-.2-.2s-.2-.1-.2-.1c.1 0 .1-.1.2-.1l.2-.1-.2-.2c-.1 0-.2-.1-.2-.1V1.9c.1 0 .2-.1.2-.1.1 0 .1-.1.2-.1V.3h.7v10.2c0-.2.1-.4.1-.6 0-.2.1-.3.1-.4V4.2s0-.1.1-.2.1-.2.1-.3V.9s0-.1.1-.3c.1-.1.1-.3.1-.4h2.6L26.6 8V.3h4.1v1.5h-.2-.2c0 .1-.1.1-.1.2v5.8c0 .1 0 .2.1.3h.1s-.1 0-.1.1c.1.1.2.1.3.1V8.6l.1.1v.4H26l-.1.1v.1c0 .1 0 .2.1.4 0 .2.1.2.2.2s.2-.1.2-.2.1-.2.1-.4h.2c0 .1 0 .2-.1.2 0 .1-.1.2 0 .3.1 0 .1-.1.2-.2 0-.1.1-.2.1-.3h.1c0 .1-.1.2-.1.2v.3c.1 0 .1-.1.2-.2s.1-.2.1-.3h.2c0 .1-.1.1-.1.2s-.1.2-.1.3h.1s.1 0 .1-.1c0 0 .1-.1.1-.2s0-.1.1-.2v-.1h.2c0 .1 0 .2-.1.2 0 .1-.1.2 0 .3.1 0 .2-.1.2-.2s0-.2.1-.3h.2c0 .1-.1.2-.1.2v.3c.1 0 .1-.1.2-.2 0-.1 0-.2.1-.3h.2c0 .1-.1.1-.1.2s-.1.2-.1.2l.1.1c.1 0 .1-.1.2-.2 0-.1.1-.3.1-.3h.2c0 .1 0 .2-.1.2v.3c.1 0 .1 0 .2-.2 0-.1.1-.3.1-.4h.2c0 .1 0 .2-.1.2 0 .1-.1.2 0 .3.1 0 .1-.1.2-.2 0-.1.1-.2.1-.3h.2c0 .1-.1.2-.1.2v.3c.1 0 .1-.1.2-.2s.1-.2.1-.3h.2c0 .1-.1.2-.1.2 0 .1 0 .2-.1.3.1 0 .2-.1.2-.2s.1-.2.1-.3h.2c0 .1 0 .2-.1.2 0 .1-.1.2 0 .3.1 0 .2-.1.2-.2s0-.2.1-.3h.2c0 .1-.1.2-.1.2v.3s.1 0 .1-.1c0 0 0-.1.1-.2 0-.1 0-.1.1-.2 0-.1.1-.1.1-.1v.2c0 .1 0 .2-.1.2.1.1.3.1.4.1h.4c-.4.6-.4.8-.5 1.1zm-8.8-1.8l-.1.7h.1v-.7zm.2 0l-.1.7h.1v-.7zm0 .4v.3c0-.1.1-.2 0-.3v-.3c.1.1 0 .2 0 .3zm.2-.1l-.1.5h.1v-.5zm.1.1l-.1.3h.1v-.3zm.1.2l-.1.2h.1v-.2z" class="st0"/><path d="M34.8 8.2c0 .1-.1.2-.1.3h-.2c0-.1.1-.2.1-.4 0-.1.1-.2.1-.3h.2c0 .1 0 .2-.1.4zm-.3 2.3V8.8h4.3v1.7h-4.3zm.7 4v-2.1c0-.1-.1-.2-.2-.3h-.3c.1-.1.1-.1.1-.2h-.1s-.1 0 0 0v-.1.1c0-.1-.1-.1-.2-.1v-.2h2.2v-.1h-2.2v-1h4.3V13H37v.1h1.9v1.5h-3.7zm4.9-11.1c0-.2-.1-.3-.3-.3h.1-.1-1l-.1.1v1.5l.1.1h.1V6h5.5v2.3h-3.7v-.7h-6.1v-.4H34.9c.1 0 .1 0 .2-.1l.1-.1V3.3c.1 0 .2-.1.2-.1V1.6c0-.1-.1-.1-.2-.1H35v-.1s-.1-.1-.2-.1-.2 0-.2.1v-1h10.7v3h-5.2zM35 12.1c-.1 0-.1 0 0 0-.1 0-.1 0 0 0-.1 0-.1.1 0 0-.1.1-.1.1 0 0zm.2-3.9c0 .1-.1.2-.1.3h-.2c0-.1.1-.2.1-.4 0-.1.1-.2.1-.3h.2c0 .1-.1.2-.1.4zm0-6.9H35v.1l.2-.1zm.4 6.9c0 .1-.1.2-.1.3h-.2c0-.1.1-.2.1-.3 0-.1.1-.2.1-.3h.2s-.1.1-.1.3zm.4 0l-.1.3h-.2c0-.1.1-.2.1-.3 0-.1.1-.2.1-.3h.2s-.1.1-.1.3zm.4 0c0 .1-.1.2-.1.3h-.2c.1-.2.1-.4.2-.6h.2c-.1.1-.1.2-.1.3zm.4 0c0 .1-.1.2-.1.3h-.2c.1-.2.1-.4.2-.6h.2c-.1 0-.1.1-.1.3zm0 3.6zm0 .2zm0 .2l-.1.1h.1v-.1zm.1.2zm.3-4.2c0 .1-.1.2-.1.3h-.2c0-.1.1-.3.1-.4v-.2h.2v.3zm-.3 4.3zm0 .2l-.1.1h.1v-.1zm.1.2zm.5-4.7c0 .1-.1.2-.1.3h-.2v-.1s0-.1.1-.2c0-.1.1-.2.1-.3h.2s0 .1-.1.3zm.4 0l-.1.3h-.2c0-.1.1-.2.1-.3 0-.1.1-.2.1-.3h.2s0 .1-.1.3zm.4 0l-.1.3H38c0-.1 0-.2.1-.3 0-.1.1-.2.1-.3h.2s0 .1-.1.3zm.4 0l-.1.3h-.2c0-.1 0-.2.1-.3 0-.1.1-.2.1-.3h.2s-.1.1-.1.3zm.4 0c0 .1-.1.2-.1.3h-.2c0-.1.1-.3.1-.4 0-.1.1-.2.1-.2h.2s-.1.1-.1.3zm.4 0c0 .1-.1.2-.1.3h-.2c0-.1.1-.3.1-.4 0-.1.1-.2.1-.3h.2c-.1.1-.1.2-.1.4zm.4 0c0 .1-.1.2-.1.3h-.2c0-.1.1-.2.1-.3 0-.1.1-.2.1-.3h.2c-.1 0-.1.1-.1.3zm.4 0l-.1.3H40v-.3c0-.1.1-.2.1-.3h.2v.3zM53.5 10.1h-1.2 1.4v4.3h-4.4v-1.8l-.3.3-.3.3v-.4-.4c.1-.1.2-.3.3-.4.1-.1.3-.2.4-.4v-.4l-.7.8v-.4-.4c.1-.2.2-.3.3-.4.1-.1.3-.2.4-.4v-.3l-.6.7v-.4-.4c.1-.2.2-.3.3-.4.1-.1.3-.2.4-.4v-.3l-.6.7v-.4-.4c.1-.2.2-.3.3-.4.1-.1.3-.2.4-.4v-.3l-.6.7V8v-.4c.1-.1.2-.3.3-.4s.3-.2.4-.4v-.3l-.7.2c-.1.1-.2.2-.3.4v-.4-.4c0-.2.1-.3.3-.4s.3-.2.4-.4v-.3l-.4.3c-.1.1-.2.2-.3.4v-.4-.4c0-.1.1-.2.3-.3.2-.1.3-.3.4-.4v-.1-.2c.1 0 .2 0 .3-.1l.3-.3v-.4l-1.3 1.4v-.4-.4c.1-.2.2-.3.3-.4s.3-.2.4-.4V3v-.2l-.6.7v-.4-.4l.1-.1c.1-.1.1-.2.2-.3 0-.2.1-.3.1-.3.1-.1.1-.2.1-.2V.2h4.4V3h-.2v.3c0 .1 0 .2.1.3 0 .1.1.2.1.3v.4h-3.6l-.2.2h3.8v3.7l-.2 1.9zM51 3.4c0-.2 0-.3-.1-.5h-.4l.2 1h.3v-.5zm.3-.4H51c0 .2.1.4.1.6 0 .2 0 .3.1.5h.4L51.3 3zm.5.4c0-.1 0-.3-.1-.4h-.4l.2 1h.3c.1-.2 0-.5 0-.6zm.3-.4h-.3c0 .2.1.4.1.6 0 .2 0 .3.1.5h.4L52.1 3zm.5 0h-.4l.2 1h.3l-.1-1zm.4 0h-.3c0 .2 0 .4.1.5 0 .2 0 .3.1.5h.4L53 3zm.5.4c0-.1 0-.3-.1-.4H53l.2 1h.3v-.6zM67.7 9.8v-1h-2.2l-.1 1.9H65c-.1-.1-.1-.3-.2-.4s-.2-.3-.3-.4l-2.8 4.5h-4.9l1.3-2H58s-.1 0-.1.1l-.1.1c.1-.1.2-.3.4-.6s.4-.7.6-1.1c.2-.4.5-.8.7-1.2s.5-.8.7-1.2c.2-.4.4-.6.6-.9.1-.3.2-.4.2-.4.1 0 .2 0 .2.1l-.8 1.4.1.1v-.2c0-.1.1-.2.1-.3s.1-.2.2-.3c.2-.1.2-.2.3-.3h.2l.4-.7-1.3-1.9h8.2l-1.3 2L69 9.7h-1.3zM70.1 3H67v1.4h2.2c-.1.1-.2.3-.3.5h-8.6c0-.1-.1-.1-.1-.2-.1-.2-.2-.3-.2-.3h.8V3h-1.7L57.3.3h4.8L63.7 3h-.3v1.4h.7v-.7c.1.1.2.3.2.4s.2.3.3.4c0 0 .1 0 .1-.1 0 0 0-.1.1-.1h.2v-.1-.1c.3-.6.7-1.3 1.1-1.9.4-.6.7-1.3 1.1-1.9h4.7L70.1 3zm-8.7 4l-.1.1-.1-.1c0-.1.1-.1.2-.2h.1l-.1.2zm1.5-4h-1.5v1.4h1.5V3zm4.4 11.4L65 10.8h3.7c0 .1.1.3.1.4 0 .2.1.3.1.5h1.4l.8 1.2H69v.3h2.3l.8 1.3h-4.8zm-1.5-4.7c0 .2 0 .4-.1.5V10c-.1 0-.1-.1.1-.3-.1-.2 0-.4 0-.5v.5zm.1.1c0 .2 0 .3-.1.5v-.4-.3c0-.1.1-.3.1-.4v.6zm.1-.1v.5-.5-.2-.2.4zm.1.1c0 .2 0 .3-.1.5l.1-.5v-.5c.1.1 0 .3 0 .5zm.2-.4v.6c0 .1 0 .2-.1.3v-.6-.5c.1.1.1.1.1.2zm.1.4c0 .2 0 .3-.1.5v-1h.1v.5zm0 .5c0-.2 0-.3.1-.5 0-.2 0-.3.1-.5v1h-.2zm.3-.5c0 .2 0 .3-.1.5v-.2c0-.1 0-.2.1-.3v-.5.5zm.1 0c0 .2 0 .3-.1.5v-.4-.3c0-.1.1-.3.1-.4v.6zm.1 0v.5-.5-.3c0-.1 0-.2.1-.2l-.1.5zm.2 0c0 .2 0 .3-.1.5 0-.2 0-.4.1-.5v-.5.5zm.1 0c0 .2 0 .3-.1.5V10s0-.1.1-.2c-.1-.3 0-.4 0-.5v.5zm.1 0c0 .2 0 .3-.1.5l.1-.5c-.1 0-.1-.1 0-.2 0-.1.1-.2.1-.3 0 .1 0 .3-.1.5zm.2-.5l-.1 1h-.1l.2-1zm.1.5c0 .2 0 .3-.1.5v-.2s0-.2.1-.3v-.5.5zm2 .9c0-.1 0-.2-.1-.3l.2.3h-.1zM87 3.9c0 .1 0 .1.1.1h.2c-.1.1-.2.1-.4.2s-.3.2-.3.2-.1 0-.1-.1h-.4V3.1c-.1-.1-.3-.2-.4-.3-.2-.1-.3-.2-.3-.2h-4.3l-.1.1s0 .1-.1.1h-1.1s-.1 0-.1-.1-.1-.1-.1-.2h-4.4V.4h2.6l-.1-.1-.1-.1h7.7s.1 0 .2.1.1.1.2.1h2.8V3H87v.2h1.5v.6H87zm-2.9.4s0 .1-.1.1l-.1.1h-1.7s-.1 0-.2.1c-.1 0-.1.1-.2.1h1.9v2h-4.1V5.2H77c.1-.1.2-.2.3-.2l.3-.3c.1-.1.2-.1.3-.2s.1-.1.2-.1h1.3c.1 0 .2-.1.2-.1h-2.8v-.1h-.1s-.1 0 0 0v-.1l-.1.1v-.1V4h-.9l.2-.2c0-.1.1-.2.1-.2l.2-.2c.1 0 .2-.1.2-.1v-.1c0-.1 0-.2-.1-.2h-.2c-.1 0-.2 0-.3.1-.1.1-.2.1-.3.2l-.3.3c-.1.1-.2.1-.2.2V2.7h4s.1 0 .2.1c.3.1.4.2.4.2h1.6l.1-.1s.1-.1.1-.2h2.3s.1 0 .1.1.2 0 .2 0h1.3s.1 0 .2.1.2.2.3.2v1.1h-1.7zm-6.4-1.1c0-.1-.1-.1-.1-.1h-.8v.2h1.1c-.1 0-.2-.1-.2-.1zm1.7.7h-2.5v.2h2.5v-.2zM78.3.1c-.1 0-.1-.1-.2-.1h.2s.1 0 .1.1l.1.1c-.1 0-.2-.1-.2-.1zm.4 0c-.1 0-.2-.1-.3-.1h.2c.1 0 .1 0 .1.1h.2c-.1.1-.1.1-.2 0zm.3 0c-.1 0-.2-.1-.3-.1h.3v.1h.2c0 .1-.1.1-.2 0zm.4 0c-.1 0-.2-.1-.3-.1h.3v.1h.2c-.1.1-.1.1-.2 0zm.3 3.9h-.2v.1l.2-.1zm.1-3.9c-.1 0-.2-.1-.3-.1h.3v.1h.2c-.1.1-.2.1-.2 0zm-.1 14.5v-1.7h.5v-.1-.5-1h.2V11v-.3-.3-.2-.1-.2-.3-.2c-.1-.1-.2-.1-.3-.1h-.3V7h4.1v3.5s0 .1.1.2l.2.2v3.8h-4.5zM80.1.1S80 0 79.9 0h.3l-.1.1h.2c0 .1-.1.1-.2 0zm.4 0c-.1 0-.2-.1-.3-.1h.3v.1h.2c-.1.1-.1.1-.2 0zm.3 0c-.1 0-.1-.1-.2-.1h.3l.1.1.1.1c-.2 0-.2 0-.3-.1zm.4 0C81.1.1 81 0 81 0h.2v.1h.2c-.1.1-.1 0-.2 0zm.3 0c-.1 0-.2-.1-.2-.1h.2v.1h.2c0 .1-.1 0-.2 0zm.4 0c-.1 0-.2-.1-.2-.1h.2s.1 0 .1.1l.1.1s-.1-.1-.2-.1zm.2 3.1c-.1 0-.1-.1-.2-.1h-.1s.1.1.3.1c.1.1.2.1.2.1-.1 0-.2-.1-.2-.1zm.2-3.1c-.1 0-.2-.1-.2-.1h.2v.1h.2c-.1.1-.1 0-.2 0zm.4 3.1zm.8-.1l.1.1.1.1s.1 0 .1-.1c0 0 0-.1.1-.1h-.4zm1.6.8H85V4l.1-.1zm.1-.8h-.1v.2h.1v-.2zm.9-.5h-.5c.1 0 .2.1.3.2.1 0 .1.1.2.1v-.3z" class="st1"/></svg>