<svg xmlns="http://www.w3.org/2000/svg" viewBox="0 0 344.2 300"><path d="M52.2 72.4v26.1h-1v-.1H0v-26h12.6l.2-37.3H39l-.2 37.3z"/><path d="M12.6 98.4h26.1v.1H12.6zM12.6 124.5h26.1v140.3H12.6z"/><path fill="#01ffff" d="M124.2 179.5v26.1H72v-26.1h13.6l.2-144.4H112l-.2 144.4z"/><path d="M85.6 231.6h26.1v33.3H85.6zM198.2 72.4v26H146v-26h12.6V37.8h26.2v34.6z"/><path d="M158.6 52.5h26.1v.1h-26.1zM158.6 128.4h26.1v136.5h-26.1zM270.2 128.5v26H218v-26h13.6l.2-93.4H258l-.2 93.4zM231.6 154.5h26.1v.1h-26.1zM231.6 180.6h26.1v84.3h-26.1zM343.8 80.4v25h-52.3v-25h12.6l.4-45.3h26.3l-.4 45.3zM304.6 128.4h26.1v136.5h-26.1zM0 98.4h51.1v.1H0z"/><path d="M218 154.5h52.1v.1H218z"/><path d="M218 154.5h52.1v.1H218zM0 98.4h51.1v.1H0z"/></svg>