<svg xmlns="http://www.w3.org/2000/svg" id="Слой_1" x="0" y="0" version="1.1" viewBox="0 0 400 300" xml:space="preserve"><style>.st0{fill:#01ffff}</style><path d="M61.4 102.9h55.3v27.2H4.1v-19.2H61c.2-2.8.3-5.3.4-8z" class="st0"/><path d="M61.5 236.6h55.2V264H4.2v-19H61c.2-2.9.3-5.5.5-8.4zM4.2 136.4h112.4v27.3H61.5c-.2-2.5-.3-5-.5-7.8H4.2v-19.5zM4.2 36h112.6v27.2H61.3v-9.9H4.2zM61.5 69.5h55.3v27.3H61.5c-.1-2.5-.2-4.9-.3-7.7h-57V75.3H61c.2-2.2.3-3.9.5-5.8zM61.5 203.2h55.2v27.2H61.5c-.2-2.3-.3-4.8-.5-7.6H4.2v-11.5h56.9c.1-2.9.2-5.4.4-8.1zM61.5 169.8h55.3V197H61.5c-.1-2.4-.3-4.8-.4-7.5H4.3V178h51.4c6.3 0 5.5.1 5.5-5.2.1-.9.2-1.8.3-3zM133.9 69.2h61.3v27.9h-61.3zM200.8 49.3h61.3v27.9h-61.3z"/><path d="M269.3 97.1h61.3V125h-61.3z" class="st0"/><path d="M334.6 131.3h61.3v27.9h-61.3z"/></svg>