<svg xmlns="http://www.w3.org/2000/svg" id="Слой_1" x="0" y="0" version="1.1" viewBox="0 0 150 150" xml:space="preserve"><style>.st0{fill:#10ffff}</style><path d="M75 0C33.6 0 0 33.6 0 75c0 17 5.7 32.8 15.3 45.4l9.6-9.6C17.7 100.7 13.4 88.3 13.4 75 13.4 41.1 41 13.4 75 13.4c33.9 0 61.6 27.6 61.6 61.6 0 33.9-27.6 61.6-61.6 61.6-13.3 0-25.7-4.3-35.8-11.5l-9.6 9.6C42.2 144.3 58 150 75 150c41.4 0 75-33.6 75-75S116.4 0 75 0z" class="st0"/><path d="M50.2 115.7V34.3L120.8 75l-70.6 40.7zm13.5-58.2v34.9L93.9 75 63.7 57.5z" class="st0"/></svg>