<svg xmlns="http://www.w3.org/2000/svg" id="Слой_1" x="0" y="0" version="1.1" viewBox="0 0 400 300" xml:space="preserve"><style>.st0{fill:#01ffff}</style><path d="M207.4 4h26.1v26h-26.1zM207.4 42h26.1v26h-26.1zM84.4 80h26.1v26H84.4zM207.4 80h26.1v26h-26.1z"/><path d="M330.4 80h26.1v26h-26.1z" class="st0"/><path d="M84.4 118h26.1v26H84.4zM166.4 118h26.1v26h-26.1zM207.4 118h26.1v26h-26.1zM330.4 118h26.1v26h-26.1z"/><path d="M84.4 156h26.1v26H84.4z" class="st0"/><path d="M166.4 156h26.1v26h-26.1zM207.4 156h26.1v26h-26.1zM248.4 156h26.1v26h-26.1zM330.4 156h26.1v26h-26.1zM43.4 194h26.1v26H43.4zM84.4 194h26.1v26H84.4zM166.4 194h26.1v26h-26.1zM207.4 194h26.1v26h-26.1zM248.4 194h26.1v26h-26.1zM330.4 194h26.1v26h-26.1zM371.4 194h26.1v26h-26.1zM43.4 232h26.1v26H43.4zM84.4 232h26.1v26H84.4zM125.4 232h26.1v26h-26.1zM166.4 232h26.1v26h-26.1zM207.4 232h26.1v26h-26.1z"/><path d="M248.4 232h26.1v26h-26.1z" class="st0"/><path d="M330.4 232h26.1v26h-26.1zM371.4 232h26.1v26h-26.1zM2.4 270h26.1v26H2.4zM43.4 270h26.1v26H43.4zM84.4 270h26.1v26H84.4zM125.4 270h26.1v26h-26.1zM166.4 270h26.1v26h-26.1zM207.4 270h26.1v26h-26.1zM248.4 270h26.1v26h-26.1zM289.4 270h26.1v26h-26.1zM330.4 270h26.1v26h-26.1zM371.4 270h26.1v26h-26.1z"/></svg>