<svg xmlns="http://www.w3.org/2000/svg" viewBox="0 0 35 35"><path fill="#01ffff" fill-rule="evenodd" d="M33.6 27.9h-3.8c-1.5 0-1.9-1.2-4.5-3.8-2.3-2.2-3.3-2.5-3.8-2.5-.8 0-1 .2-1 1.3v3.5c0 .9-.3 1.5-2.8 1.5-4 0-8.5-2.5-11.7-7C1.3 14.2 0 9.2 0 8.2c0-.6.2-1.1 1.3-1.1h3.8c1 0 1.3.4 1.7 1.5 1.9 5.5 5 10.2 6.3 10.2.5 0 .7-.2.7-1.5v-5.7c-.1-2.6-1.5-2.8-1.5-3.8 0-.5.4-.9.9-.9h6c.8 0 1.1.4 1.1 1.4v7.6c0 .8.4 1.1.6 1.1.5 0 .9-.3 1.8-1.2 2.8-3.1 4.7-7.8 4.7-7.8.3-.7.9-1.1 1.7-1.1H33c1.2 0 1.4.6 1.2 1.4-.5 2.2-5.2 8.8-5.2 8.8-.4.7-.6 1 0 1.7.4.6 1.7 1.7 2.6 2.8 1.6 1.9 2.9 3.4 3.2 4.5.5 1.3-.1 1.8-1.2 1.8z" clip-rule="evenodd"/></svg>